<?xml version="1.0" standalone="no"?>
<!DOCTYPE svg PUBLIC "-//W3C//DTD SVG 20010904//EN"
 "http://www.w3.org/TR/2001/REC-SVG-20010904/DTD/svg10.dtd">
<svg version="1.0" xmlns="http://www.w3.org/2000/svg"
 width="300.000000pt" height="225.000000pt" viewBox="0 0 300.000000 225.000000"
 preserveAspectRatio="xMidYMid meet">
<metadata>
Created by potrace 1.10, written by Peter Selinger 2001-2011
</metadata>
<g transform="translate(0.000000,225.000000) scale(0.100000,-0.100000)"
fill="#761111" stroke="none">
<path d="M31 2236 c-9 -11 -8 -17 9 -29 28 -19 16 -51 -16 -44 -13 2 -24 0
-24 -4 0 -5 5 -9 11 -9 5 0 7 -6 3 -12 -5 -9 -2 -9 9 1 24 19 21 -2 -3 -24
-11 -10 -20 -23 -20 -28 0 -6 14 2 30 18 29 28 60 41 60 26 0 -4 -5 -12 -12
-19 -6 -6 -8 -15 -4 -19 10 -10 26 17 26 47 0 17 3 21 11 13 6 -6 9 -23 7 -39
-3 -26 -7 -29 -38 -29 -25 0 -36 -5 -37 -15 -1 -21 -11 -58 -17 -69 -8 -13 36
-58 64 -65 l25 -7 -25 22 c-14 12 -18 20 -10 17 8 -3 22 2 30 11 8 9 22 17 30
19 9 1 6 -5 -8 -18 -13 -11 -21 -23 -18 -28 9 -14 -18 -63 -31 -57 -7 2 -15 0
-18 -6 -4 -5 6 -8 24 -7 30 2 35 8 32 36 -1 6 2 12 7 12 5 0 15 18 22 41 14
41 11 67 -20 176 -10 35 -10 47 4 73 14 30 14 31 -2 25 -9 -4 -23 -8 -29 -8
-7 0 -13 -5 -13 -10 0 -5 8 -6 17 -3 15 6 14 4 -2 -14 -10 -12 -20 -28 -21
-36 -3 -19 -12 -29 -19 -22 -3 3 -1 18 5 33 8 21 8 31 -1 39 -9 8 -10 8 -5 -1
4 -8 1 -13 -8 -13 -19 0 -21 11 -4 28 8 8 8 12 1 12 -6 0 -16 -6 -22 -14z m79
-46 c0 -5 -5 -10 -11 -10 -5 0 -7 5 -4 10 3 6 8 10 11 10 2 0 4 -4 4 -10z
m-11 -137 c1 25 18 21 23 -6 5 -23 -14 -51 -26 -39 -4 3 -4 -1 0 -11 5 -14 0
-17 -25 -17 -31 0 -43 21 -20 36 6 3 9 15 6 25 -3 11 -1 17 3 14 5 -3 12 0 16
7 5 8 10 6 15 -8 7 -17 8 -17 8 -1z"/>
<path d="M76 2021 c-4 -5 3 -7 14 -4 23 6 26 13 6 13 -8 0 -17 -4 -20 -9z"/>
<path d="M215 2240 c-3 -6 1 -7 9 -4 18 7 21 14 7 14 -6 0 -13 -4 -16 -10z"/>
<path d="M346 2238 c3 -5 10 -6 15 -2 6 3 16 0 22 -8 7 -7 11 -11 10 -9 -2 2
5 10 15 17 15 11 11 12 -25 11 -23 -1 -39 -5 -37 -9z"/>
<path d="M730 2240 c0 -5 5 -10 10 -10 6 0 10 5 10 10 0 6 -4 10 -10 10 -5 0
-10 -4 -10 -10z"/>
<path d="M770 2231 c-13 -11 -28 -17 -32 -15 -5 3 -18 2 -31 -2 -21 -7 -21 -8
7 -15 23 -6 32 -4 42 9 10 14 15 15 25 5 15 -15 49 -17 49 -4 0 6 -5 13 -12
17 -7 4 -8 3 -4 -4 4 -7 1 -12 -8 -12 -24 0 -19 19 7 30 20 8 20 9 2 9 -11 0
-31 -8 -45 -18z"/>
<path d="M860 2235 c-14 -8 -19 -14 -11 -15 11 0 9 -5 -5 -22 -19 -22 -19 -22
1 -8 19 15 19 15 0 -12 -24 -33 -39 -36 -30 -5 6 22 6 22 -10 2 -15 -19 -17
-19 -64 -2 -61 21 -57 22 -56 -10 0 -23 -4 -28 -25 -28 -19 0 -25 5 -24 22 0
12 -3 20 -8 17 -4 -3 -8 0 -8 5 0 16 -21 13 -42 -6 -21 -19 -37 -10 -19 11 7
8 8 17 3 20 -10 6 -27 -21 -24 -36 1 -5 -3 -8 -10 -8 -9 0 -9 -3 -1 -11 8 -8
17 -7 34 2 36 19 59 18 59 -2 0 -15 -6 -17 -29 -13 -16 3 -31 1 -35 -4 -4 -7
23 -11 79 -11 47 0 85 4 85 9 0 5 -6 7 -14 4 -10 -4 -12 2 -9 20 5 24 6 25 33
11 35 -18 41 -42 21 -75 -12 -20 -7 -17 27 13 42 37 62 46 62 27 0 -5 -4 -10
-10 -10 -5 0 -10 -7 -10 -15 0 -27 20 -16 27 15 8 40 25 38 21 -2 -3 -30 -6
-33 -38 -33 -25 0 -36 -5 -37 -15 -1 -8 -4 -24 -6 -35 -3 -11 -6 -24 -6 -30
-2 -16 -19 9 -24 35 -4 19 -5 16 -5 -10 0 -19 0 -232 -1 -473 l-1 -439 -117 2
c-65 1 -129 2 -142 1 -41 -2 -14 -15 29 -14 51 1 57 -9 25 -43 -41 -44 -33
-50 40 -31 6 1 15 6 21 10 7 4 14 -4 17 -21 5 -26 8 -27 66 -27 43 0 61 4 61
13 0 8 -8 10 -25 6 -20 -5 -25 -2 -25 13 0 11 7 20 15 20 8 0 15 -4 15 -9 0
-4 7 -8 15 -8 8 0 15 -8 15 -17 0 -15 2 -16 10 -3 5 8 12 11 16 7 9 -9 -35
-57 -52 -57 -8 0 -11 6 -8 14 4 11 -1 11 -30 2 -20 -6 -36 -14 -36 -17 0 -8
92 -5 107 4 6 4 14 3 18 -3 3 -5 12 -10 18 -10 7 0 4 7 -6 14 -17 13 -16 15 9
35 35 27 41 20 20 -23 -9 -19 -16 -39 -16 -46 0 -6 -4 -8 -10 -5 -6 4 -7 -1
-3 -11 4 -12 3 -15 -6 -10 -7 4 -10 3 -9 -5 2 -6 -2 -13 -9 -16 -7 -2 -13 8
-16 24 -4 26 -4 26 -5 3 -1 -26 48 -90 69 -90 6 0 20 11 31 25 20 25 38 33 38
16 0 -5 -9 -13 -21 -16 -16 -5 -18 -9 -8 -21 9 -12 9 -13 -2 -9 -8 3 -23 -2
-34 -10 -19 -16 -19 -16 8 -10 25 5 27 4 18 -14 -7 -13 -18 -18 -33 -15 l-23
5 23 -11 c13 -5 20 -14 17 -20 -3 -5 -1 -10 4 -10 6 0 11 7 11 16 0 8 5 12 10
9 6 -3 11 1 11 9 2 24 4 29 20 61 23 44 22 87 -2 167 -21 67 -21 72 -5 99 10
16 16 29 14 30 -2 0 -27 1 -56 2 -38 1 -58 -3 -68 -14 -13 -15 -13 -17 0 -22
8 -3 17 1 20 9 6 16 46 19 46 3 0 -5 5 -7 11 -3 7 4 10 -1 7 -12 -2 -10 -12
-20 -22 -22 -14 -3 -17 0 -13 11 4 11 1 14 -8 10 -8 -3 -13 -8 -11 -12 3 -4 1
-13 -4 -21 -7 -11 -16 -11 -48 -2 -60 18 -70 16 -64 -14 4 -23 2 -25 -24 -22
-25 2 -29 7 -29 32 0 16 -6 31 -12 33 -7 3 -13 0 -13 -7 0 -6 -6 -8 -12 -4 -7
4 -10 4 -6 -1 4 -4 -4 -14 -18 -22 -46 -23 -48 -14 -7 26 33 31 47 38 70 34
67 -11 115 0 125 28 6 14 7 202 4 442 -3 229 -2 417 2 417 4 0 16 -11 26 -25
10 -14 26 -25 35 -26 10 0 12 -2 4 -6 -7 -2 -13 -9 -13 -14 0 -4 7 -6 15 -3
10 4 15 0 15 -10 0 -12 -7 -15 -25 -12 -14 3 -23 1 -20 -5 4 -5 19 -9 35 -9
41 0 46 26 10 62 -17 16 -25 28 -18 25 7 -2 21 5 30 15 9 11 19 19 22 19 21
-3 26 2 26 27 0 15 -9 53 -20 85 -24 67 -24 74 -6 110 17 30 12 33 -24 12z
m-70 -100 c-7 -9 -15 -13 -17 -11 -7 7 7 26 19 26 6 0 6 -6 -2 -15z m41 -103
c-9 -18 -8 -19 11 -14 13 3 17 7 11 9 -12 4 -5 43 8 43 12 0 11 -32 -1 -64 -7
-20 -16 -26 -40 -26 -30 0 -42 21 -19 36 6 3 9 15 6 25 -3 11 -1 17 3 14 5 -3
12 0 16 7 13 20 17 -8 5 -30z m4 -992 c-3 -5 -11 -10 -16 -10 -6 0 -7 5 -4 10
3 6 11 10 16 10 6 0 7 -4 4 -10z m33 -45 c2 -27 -1 -35 -14 -35 -12 0 -15 6
-10 23 3 12 6 28 6 35 0 29 16 9 18 -23z m-38 -90 c-9 -11 -7 -12 8 -8 14 3
18 11 14 29 -2 13 0 24 6 24 24 0 19 -50 -9 -82 -16 -18 -28 -28 -29 -21 0 7
-7 10 -15 7 -21 -9 -19 12 8 58 15 28 23 35 25 24 2 -9 -1 -23 -8 -31z"/>
<path d="M930 2239 c0 -5 9 -9 20 -9 11 0 20 2 20 4 0 2 -9 6 -20 9 -11 3 -20
1 -20 -4z"/>
<path d="M1097 2237 c3 -5 8 -6 11 -3 3 3 11 1 19 -6 11 -9 18 -8 30 5 15 14
13 16 -25 14 -22 -1 -38 -5 -35 -10z"/>
<path d="M1450 2234 c-14 -7 -34 -14 -45 -15 -20 0 -20 0 0 -9 28 -12 37 -12
30 0 -3 6 1 10 10 10 9 0 14 -4 11 -9 -11 -16 37 -21 49 -4 10 13 15 13 33 2
25 -16 25 -18 12 -39 -8 -13 -15 -13 -58 3 -62 21 -58 22 -57 -10 0 -23 -4
-28 -25 -28 -19 0 -25 5 -24 22 0 12 -3 20 -8 17 -4 -3 -8 2 -8 11 0 10 5 14
13 9 9 -5 9 -4 0 6 -9 10 -17 7 -40 -14 -15 -14 -39 -26 -52 -26 -18 0 -22 -3
-14 -11 8 -8 17 -7 34 2 36 19 59 18 59 -2 0 -15 -6 -17 -29 -13 -16 3 -31 1
-35 -4 -4 -7 23 -11 79 -11 47 0 85 4 85 9 0 5 -6 7 -14 4 -10 -4 -12 2 -9 20
5 24 6 25 33 11 30 -16 44 -47 27 -64 -6 -6 -8 -13 -5 -17 4 -3 19 8 34 25 15
17 33 31 41 31 16 0 17 -12 1 -28 -6 -6 -8 -15 -4 -19 10 -10 26 17 26 47 0
17 3 21 11 13 6 -6 9 -23 7 -39 -3 -26 -7 -29 -38 -29 -25 0 -36 -5 -37 -15
-1 -8 -4 -24 -6 -35 -3 -11 -6 -24 -6 -30 -2 -17 -19 9 -24 35 -2 14 -5 -188
-6 -448 l-1 -472 -134 1 -133 1 -7 56 c-12 106 -26 140 -62 163 -36 22 -65 22
-72 2 -2 -8 6 -13 22 -13 16 0 24 -5 21 -12 -3 -7 13 -26 35 -41 22 -15 39
-31 38 -35 -1 -4 1 -35 5 -69 7 -53 11 -63 27 -63 11 0 20 -6 20 -12 0 -8 3
-9 8 -3 10 14 39 17 47 5 3 -5 -5 -21 -19 -35 -15 -14 -26 -30 -26 -35 0 -13
30 -13 50 0 9 6 20 5 29 -3 11 -9 13 -9 8 0 -4 6 -3 14 2 17 5 3 11 -7 14 -22
5 -26 8 -27 66 -27 43 0 61 4 61 13 0 8 -8 10 -25 6 -20 -5 -25 -2 -25 13 0
11 7 20 15 20 8 0 15 -4 15 -9 0 -4 7 -8 15 -8 8 0 15 -8 15 -17 0 -15 2 -16
10 -3 5 8 12 11 16 8 8 -9 -37 -58 -53 -58 -7 0 -10 7 -6 16 5 14 3 15 -15 5
-11 -6 -30 -11 -42 -11 -12 0 -19 -4 -16 -9 3 -4 28 -8 55 -7 40 2 56 8 87 35
27 24 39 30 43 20 2 -7 -1 -15 -7 -17 -7 -2 -12 -12 -12 -21 0 -10 -9 -26 -20
-36 -11 -10 -20 -26 -20 -37 0 -28 -18 -21 -23 10 -2 15 -5 -183 -6 -440 0
-310 2 -468 9 -468 7 0 8 146 5 436 l-5 437 26 -27 c15 -14 31 -26 37 -26 5 0
4 -7 -3 -15 -10 -12 -10 -15 1 -15 8 0 21 5 29 10 13 9 13 11 0 19 -12 8 -12
13 4 30 20 22 36 27 36 13 0 -5 -9 -13 -19 -18 -17 -8 -18 -11 -6 -27 13 -18
14 -18 26 5 21 40 21 90 -2 170 -21 72 -21 78 -6 102 10 14 17 27 17 28 0 2
-24 3 -54 3 -56 -1 -99 -21 -74 -36 8 -5 16 -2 21 6 9 17 47 20 47 4 0 -5 5
-7 10 -4 18 11 11 -31 -8 -48 -22 -20 -36 -22 -26 -5 13 21 12 46 -2 41 -8 -3
-13 -8 -12 -11 3 -28 -4 -34 -32 -28 -16 3 -43 9 -59 12 -27 6 -28 4 -23 -21
4 -24 2 -26 -23 -23 -22 2 -31 11 -41 38 -7 19 -13 29 -13 22 -1 -7 -5 -11
-10 -8 -4 3 -16 -3 -26 -14 -10 -11 -25 -20 -34 -20 -9 0 2 16 28 40 35 33 47
39 69 33 15 -4 34 -6 42 -5 8 1 26 3 40 4 49 6 50 12 45 466 -3 232 -2 422 2
422 5 0 14 -9 21 -20 7 -12 24 -25 37 -30 16 -6 25 -17 25 -31 0 -14 -5 -19
-15 -16 -8 4 -17 2 -20 -4 -4 -5 6 -8 24 -7 41 3 42 38 4 69 -16 12 -21 20
-13 17 8 -3 23 4 32 14 9 11 19 19 22 19 33 -4 34 21 5 115 -20 63 -20 70 -5
101 17 37 13 40 -24 17 -16 -10 -18 -13 -6 -9 20 6 20 5 1 -15 -10 -12 -20
-28 -21 -36 -3 -19 -12 -29 -19 -22 -3 3 -1 18 5 33 8 21 8 31 -1 39 -9 8 -10
8 -5 -1 4 -8 1 -13 -8 -13 -24 0 -19 19 7 30 20 8 20 9 2 9 -11 0 -31 -8 -44
-18 -23 -18 -66 -18 -56 0 3 4 12 6 20 2 8 -3 15 0 15 6 0 14 -19 13 -50 -5z
m160 -44 c0 -5 -5 -10 -11 -10 -5 0 -7 5 -4 10 3 6 8 10 11 10 2 0 4 -4 4 -10z
m-72 -54 c-7 -8 -15 -12 -17 -11 -5 6 10 25 20 25 5 0 4 -6 -3 -14z m61 -83
c1 25 18 21 23 -6 5 -23 -14 -51 -26 -39 -4 3 -4 -1 0 -11 5 -14 0 -17 -25
-17 -31 0 -43 21 -20 36 6 3 9 15 6 25 -3 11 -1 17 3 14 5 -3 12 0 16 7 5 8
10 6 15 -8 7 -17 8 -17 8 -1z m-409 -763 c0 -5 -7 -7 -15 -4 -8 4 -15 8 -15
10 0 2 7 4 15 4 8 0 15 -4 15 -10z m428 -295 c2 -27 -1 -35 -14 -35 -12 0 -15
6 -10 23 3 12 6 28 6 35 0 29 16 9 18 -23z m-17 -100 c6 -6 7 3 3 23 -4 19 -2
32 4 32 24 0 19 -50 -9 -82 -16 -18 -28 -28 -29 -21 0 7 -7 10 -14 7 -12 -5
-14 3 -12 33 2 23 7 37 15 35 6 -1 15 6 19 15 6 15 7 14 10 -7 2 -14 8 -29 13
-35z"/>
<path d="M1576 2021 c-4 -5 3 -7 14 -4 23 6 26 13 6 13 -8 0 -17 -4 -20 -9z"/>
<path d="M1847 2237 c3 -4 8 -6 11 -3 3 3 15 -2 26 -11 12 -10 18 -14 14 -9
-4 5 0 15 10 23 13 10 14 13 2 11 -8 -2 -18 -7 -22 -13 -5 -6 -8 -6 -8 2 0 6
-9 11 -19 10 -11 0 -17 -5 -14 -10z"/>
<path d="M2084 2228 c-46 -36 -56 -47 -49 -58 3 -5 1 -10 -6 -10 -10 0 -10 -3
-2 -11 8 -8 17 -7 34 2 36 19 59 18 59 -2 0 -15 -6 -17 -29 -13 -17 4 -32 1
-36 -5 -5 -9 20 -11 88 -9 52 2 93 0 91 -3 -2 -4 -18 -12 -36 -19 -18 -6 -43
-17 -56 -23 -24 -11 -71 6 -116 43 -16 13 -18 13 -14 0 9 -31 141 -86 135 -57
-1 7 4 11 12 9 7 -1 19 3 27 9 11 9 18 8 29 -1 13 -11 14 -10 10 2 -3 8 1 21
10 28 26 21 19 41 -11 30 -33 -13 -32 -14 -27 14 5 24 6 24 37 9 31 -14 41
-41 23 -59 -4 -4 -7 -12 -7 -17 0 -5 16 5 35 22 36 32 55 39 55 21 0 -5 -4
-10 -10 -10 -5 0 -10 -7 -10 -15 0 -27 20 -16 27 15 8 40 25 38 21 -2 -3 -31
-6 -33 -40 -33 -20 0 -35 -3 -33 -6 2 -3 -2 -23 -10 -45 -13 -38 -18 -36 -28
11 -3 11 -5 -193 -6 -453 l-1 -473 -107 1 c-156 2 -177 1 -170 -7 4 -4 25 -6
47 -6 51 1 57 -9 25 -43 -14 -15 -25 -31 -25 -35 0 -12 31 -11 50 1 9 6 20 5
29 -3 11 -9 13 -9 8 0 -4 6 -3 14 3 18 5 3 10 -2 10 -12 0 -26 16 -47 29 -38
9 5 8 10 -2 18 -21 16 -34 62 -16 52 11 -6 12 -5 2 5 -11 12 -16 11 -29 -6 -8
-10 -12 -12 -8 -4 4 8 -4 5 -18 -7 -44 -41 -49 -24 -6 17 45 42 56 44 122 16
45 -19 56 -20 56 -6 0 6 -12 10 -26 10 -15 0 -23 4 -18 11 3 6 14 9 24 6 36
-9 39 32 36 466 -2 229 -1 417 1 417 3 0 14 -11 25 -25 11 -14 27 -25 36 -26
11 0 12 -2 5 -6 -7 -2 -13 -9 -13 -14 0 -4 7 -6 16 -2 12 4 15 2 12 -8 -3 -8
-14 -13 -26 -13 -12 1 -19 -3 -16 -7 8 -14 63 -7 69 9 3 7 -9 27 -25 44 -17
16 -25 28 -18 25 7 -2 21 5 30 15 9 11 19 19 22 19 26 -3 28 1 22 41 -4 23
-14 64 -23 91 -15 45 -15 52 0 82 15 32 15 34 -2 32 -9 0 -24 -8 -31 -16 -13
-13 -12 -14 5 -7 17 6 16 3 -5 -21 -16 -18 -18 -22 -5 -13 19 15 19 15 0 -12
-24 -33 -39 -36 -30 -5 6 22 6 22 -10 2 -15 -19 -17 -19 -64 -2 -61 21 -57 22
-56 -10 0 -23 -4 -28 -25 -28 -19 0 -25 5 -24 22 0 12 -3 20 -8 17 -4 -3 -8 4
-8 16 0 20 -1 20 -27 -5 -55 -50 -60 -23 -6 29 42 40 40 47 -3 14z m206 -93
c-7 -9 -15 -13 -17 -11 -7 7 7 26 19 26 6 0 6 -6 -2 -15z m41 -103 c-9 -17 -8
-19 8 -15 13 3 17 11 13 29 -2 14 0 24 7 24 14 0 14 -30 1 -64 -7 -20 -16 -26
-40 -26 -30 0 -42 21 -19 36 6 3 9 15 6 25 -3 11 -1 17 3 14 5 -3 12 0 16 7
13 20 17 -8 5 -30z"/>
<path d="M2230 2240 c0 -5 5 -10 10 -10 6 0 10 5 10 10 0 6 -4 10 -10 10 -5 0
-10 -4 -10 -10z"/>
<path d="M2270 2231 c-13 -11 -28 -17 -32 -15 -5 3 -18 2 -31 -2 -21 -7 -20
-8 8 -14 21 -4 34 -1 42 10 9 12 14 13 24 3 15 -15 49 -17 49 -4 0 6 -5 13
-12 17 -7 4 -8 3 -4 -4 4 -7 1 -12 -8 -12 -24 0 -19 19 7 30 20 8 20 9 2 9
-11 0 -31 -8 -45 -18z"/>
<path d="M2597 2238 c2 -5 9 -5 15 -2 6 4 14 1 18 -6 6 -10 13 -9 31 3 22 16
22 16 -23 14 -26 -1 -44 -5 -41 -9z"/>
<path d="M2950 2234 c-14 -7 -34 -14 -45 -15 -20 0 -20 0 0 -8 11 -5 22 -5 25
-1 8 10 43 23 58 21 6 -1 12 3 12 9 0 13 -19 11 -50 -6z"/>
<path d="M584 2225 c-10 -8 -14 -15 -8 -15 6 0 17 7 24 15 16 19 9 19 -16 0z"/>
<path d="M665 2230 c18 -8 18 -9 -5 -10 -23 -1 -23 -2 -5 -10 14 -6 16 -9 5
-10 -8 -2 -19 -2 -23 -1 -5 1 -5 -4 -1 -11 5 -7 9 -19 10 -26 4 -22 10 -24 24
-7 8 10 9 15 1 15 -7 0 -7 7 1 25 6 14 17 25 24 25 31 0 18 15 -15 17 -27 1
-31 -1 -16 -7z"/>
<path d="M1338 2233 c-10 -2 -18 -9 -18 -14 0 -14 16 -11 30 6 7 8 11 14 9 14
-2 -1 -12 -3 -21 -6z"/>
<path d="M1388 2233 c6 -2 18 -2 25 0 6 3 1 5 -13 5 -14 0 -19 -2 -12 -5z"/>
<path d="M2160 2230 l25 -8 -25 -2 c-23 -1 -23 -2 -5 -10 14 -6 16 -9 5 -10
-8 -2 -19 -2 -23 -1 -5 1 -5 -4 -1 -11 5 -7 9 -19 10 -26 4 -22 10 -24 24 -7
8 10 9 15 1 15 -7 0 -7 7 1 25 6 14 17 25 24 25 7 0 15 3 17 8 3 4 -14 8 -37
8 -33 2 -36 0 -16 -6z"/>
<path d="M2438 2233 c6 -2 18 -2 25 0 6 3 1 5 -13 5 -14 0 -19 -2 -12 -5z"/>
<path d="M2830 2227 c-14 -7 -25 -18 -25 -25 0 -7 -7 -17 -15 -22 -8 -5 -10
-10 -4 -10 15 0 36 25 27 33 -3 4 1 7 9 7 9 0 21 7 28 15 15 18 12 18 -20 2z"/>
<path d="M2898 2233 c7 -3 16 -2 19 1 4 3 -2 6 -13 5 -11 0 -14 -3 -6 -6z"/>
<path d="M165 2210 c-3 -5 -1 -10 4 -10 6 0 11 5 11 10 0 6 -2 10 -4 10 -3 0
-8 -4 -11 -10z"/>
<path d="M910 2210 c0 -5 5 -10 10 -10 6 0 10 5 10 10 0 6 -4 10 -10 10 -5 0
-10 -4 -10 -10z"/>
<path d="M2410 2210 c0 -5 5 -10 10 -10 6 0 10 5 10 10 0 6 -4 10 -10 10 -5 0
-10 -4 -10 -10z"/>
<path d="M2951 2211 c-9 -6 -4 -10 18 -13 20 -3 30 -1 28 6 -5 14 -29 18 -46
7z"/>
<path d="M2840 2183 c-13 -12 -36 -23 -49 -23 -18 0 -22 -3 -14 -11 8 -8 17
-7 34 2 37 20 59 18 59 -3 0 -16 -5 -19 -29 -13 -17 4 -32 2 -36 -5 -5 -8 20
-10 90 -7 82 3 94 1 79 -10 -10 -7 -23 -13 -30 -13 -7 0 -16 -5 -20 -12 -5 -8
-2 -9 10 -5 9 4 28 0 42 -9 22 -15 24 -15 24 0 0 10 -6 13 -15 10 -8 -4 -15
-2 -15 4 0 5 7 15 15 22 8 7 15 19 15 26 0 10 -6 11 -26 4 -33 -13 -32 -14
-26 15 3 20 7 23 22 15 29 -16 38 -11 10 5 -36 21 -46 18 -45 -12 0 -19 -6
-29 -19 -31 -21 -4 -38 16 -31 36 2 6 0 12 -5 12 -5 0 -10 6 -12 13 -2 10 -10
7 -28 -10z"/>
<path d="M317 2182 c3 -9 10 -23 16 -29 7 -10 4 -13 -11 -13 -12 0 -24 -4 -27
-10 -3 -5 2 -10 11 -10 35 0 7 -9 -44 -14 -28 -3 -54 -1 -57 3 -6 10 18 32 54
48 14 6 20 12 13 12 -23 2 -70 -28 -77 -49 -3 -11 -10 -20 -14 -20 -4 0 -7 -9
-8 -21 -1 -14 3 -19 12 -15 8 3 17 1 20 -4 3 -4 0 -10 -7 -12 -7 -3 -8 -7 -2
-11 15 -9 33 6 37 31 5 31 16 39 13 9 -2 -18 1 -24 11 -20 9 3 11 13 7 27 l-6
21 16 -22 c9 -12 13 -29 10 -37 -5 -12 -2 -15 10 -10 9 3 16 10 16 16 0 5 4 7
9 3 5 -3 12 -1 16 5 3 6 33 -9 70 -34 36 -24 70 -46 76 -48 6 -2 11 -19 12
-38 2 -29 -2 -36 -20 -38 -17 -3 -24 3 -29 23 -9 35 -51 52 -73 29 -15 -15
-14 -16 12 -10 15 3 27 3 27 -1 0 -5 12 -21 25 -36 30 -34 57 -30 75 13 17 40
6 64 -48 107 -26 21 -53 45 -60 53 -10 13 -11 12 -5 -4 5 -16 3 -18 -13 -12
-47 20 -73 24 -77 13 -2 -6 -9 -7 -15 -3 -20 12 -13 26 12 26 38 0 57 68 25
88 -15 10 -17 9 -12 -6z m-97 -102 c0 -5 -9 -8 -19 -7 -10 0 -17 7 -14 13 5
13 33 8 33 -6z"/>
<path d="M1305 2190 c-4 -6 -11 -8 -16 -5 -5 4 -9 1 -9 -4 0 -16 16 -13 30 4
7 8 10 15 7 15 -3 0 -9 -5 -12 -10z"/>
<path d="M1397 2178 c-8 -28 1 -42 18 -28 13 11 9 50 -5 50 -4 0 -10 -10 -13
-22z"/>
<path d="M2888 2185 c4 -5 7 -16 8 -23 4 -22 10 -24 24 -7 8 10 9 15 2 15 -6
0 -9 6 -6 14 4 10 -1 14 -14 13 -12 0 -18 -6 -14 -12z"/>
<path d="M1062 2180 c2 -8 10 -20 18 -27 13 -11 12 -12 -7 -13 -12 0 -25 -4
-28 -10 -3 -5 1 -10 9 -10 9 0 16 -6 16 -12 1 -7 8 0 16 16 15 27 15 30 -6 50
-15 14 -20 16 -18 6z"/>
<path d="M986 2158 c-21 -11 -41 -28 -43 -39 -3 -10 -10 -19 -15 -19 -5 0 -6
-5 -2 -11 4 -8 9 -8 13 -1 4 8 11 8 21 1 11 -8 12 -12 2 -16 -6 -2 -10 -9 -6
-14 3 -5 0 -9 -5 -9 -6 0 -11 5 -11 10 0 6 -5 10 -11 10 -8 0 -9 -4 0 -13 6
-8 8 -17 5 -20 -4 -4 4 -4 16 -2 28 5 29 6 33 33 5 31 16 39 13 9 -2 -18 1
-24 11 -20 9 3 11 13 7 27 -6 20 -5 20 11 -2 9 -13 14 -29 11 -37 -3 -9 0 -12
9 -8 8 3 12 10 8 16 -4 6 0 8 9 4 9 -3 20 -1 26 5 7 7 16 4 30 -10 10 -10 34
-28 53 -38 75 -42 104 -105 52 -112 -17 -3 -24 3 -29 23 -9 35 -51 52 -73 29
-15 -15 -14 -16 7 -11 18 4 31 -3 55 -29 37 -40 59 -38 77 6 17 41 7 61 -59
119 -48 41 -58 47 -54 28 3 -13 1 -18 -4 -12 -12 16 -82 35 -89 24 -6 -11 -24
-2 -24 11 0 5 8 11 18 13 9 3 -6 4 -35 2 -29 -3 -55 0 -57 4 -10 15 34 44 65
44 16 0 26 3 22 6 -4 4 -10 9 -13 13 -3 3 -22 -3 -44 -14z"/>
<path d="M1742 2160 c-25 -11 -46 -29 -49 -40 -3 -11 -8 -20 -12 -20 -4 0 -7
-10 -8 -22 l-2 -23 12 22 c9 16 16 20 27 13 13 -9 13 -11 0 -20 -8 -5 -10 -10
-5 -10 6 0 4 -4 -4 -9 -7 -5 -9 -11 -4 -14 14 -9 32 7 36 31 5 31 16 39 13 9
-2 -18 1 -24 11 -20 9 3 11 13 7 27 -6 20 -6 20 9 2 8 -11 12 -28 9 -38 -5
-20 13 -25 24 -6 5 7 3 8 -6 3 -9 -6 -11 -4 -6 4 5 7 14 10 21 7 7 -2 17 0 22
5 6 6 30 -6 64 -30 30 -22 64 -47 77 -56 29 -21 26 -68 -6 -73 -16 -3 -23 3
-28 23 -9 35 -51 52 -73 29 -15 -15 -14 -16 12 -10 15 3 27 3 27 -1 0 -5 14
-23 31 -41 33 -35 42 -32 68 17 19 35 6 66 -47 108 -26 21 -50 43 -54 48 -8
10 -12 1 -9 -18 1 -4 -10 0 -23 9 -31 19 -59 24 -67 11 -7 -11 -29 -1 -29 13
0 5 8 11 18 13 9 3 -5 4 -33 2 -27 -2 -53 -1 -58 2 -10 6 22 43 38 43 11 0 56
29 45 29 -3 1 -25 -8 -48 -19z"/>
<path d="M1820 2172 c0 -4 5 -13 12 -20 9 -9 7 -12 -9 -12 -12 0 -25 -5 -29
-12 -5 -8 -2 -9 9 -5 12 4 17 1 17 -11 1 -15 2 -14 12 2 17 30 18 66 2 66 -8
0 -14 -4 -14 -8z"/>
<path d="M2490 2162 c-19 -11 -39 -29 -45 -40 -5 -12 -13 -22 -18 -22 -4 0 -5
-5 -1 -11 4 -8 9 -8 13 -1 4 7 12 8 21 1 13 -8 13 -10 0 -19 -8 -5 -10 -10 -5
-10 6 0 4 -4 -4 -9 -7 -5 -9 -11 -4 -14 14 -9 32 7 36 31 5 31 16 39 13 9 -2
-18 1 -24 11 -20 9 3 11 13 7 27 -6 21 -6 21 9 1 10 -12 13 -30 10 -44 -5 -22
-4 -23 9 -10 9 8 13 18 10 23 -3 5 2 7 10 3 9 -3 20 -1 25 4 6 6 19 0 36 -16
23 -23 26 -24 35 -9 6 11 11 13 16 5 4 -6 2 -11 -5 -11 -8 0 -8 -4 1 -15 7 -8
17 -15 23 -15 5 0 21 -12 34 -26 29 -32 27 -68 -4 -72 -17 -3 -24 3 -29 23 -9
35 -51 52 -73 29 -15 -15 -14 -16 8 -11 17 4 29 -1 46 -21 16 -19 20 -29 12
-34 -7 -5 4 -5 23 -1 40 7 59 27 60 62 0 18 -17 41 -57 78 -49 45 -59 50 -65
35 -3 -9 -7 -11 -7 -4 -1 6 -10 12 -22 12 -11 0 -18 4 -15 8 6 10 -34 10 -50
-1 -11 -7 -24 0 -24 14 0 4 8 10 18 12 9 3 -5 4 -33 2 -27 -2 -53 -1 -58 2
-10 6 22 43 38 43 14 0 54 29 40 30 -6 0 -26 -8 -45 -18z"/>
<path d="M2574 2159 c25 -15 4 -28 -38 -23 l-31 3 30 -11 c17 -6 33 -15 36
-20 7 -11 31 41 24 53 -4 5 -14 9 -23 9 -15 -1 -15 -2 2 -11z"/>
<path d="M2645 2150 c-3 -5 -1 -10 4 -10 6 0 11 5 11 10 0 6 -2 10 -4 10 -3 0
-8 -4 -11 -10z"/>
<path d="M365 2140 c-3 -5 -1 -10 4 -10 6 0 11 5 11 10 0 6 -2 10 -4 10 -3 0
-8 -4 -11 -10z"/>
<path d="M430 2136 c6 -8 18 -12 26 -9 23 9 16 23 -12 23 -22 0 -24 -2 -14
-14z"/>
<path d="M740 2148 c-2 -5 -3 -12 -4 -18 0 -5 -9 -15 -19 -23 -18 -12 -18 -14
-1 -28 13 -10 16 -10 10 -1 -5 8 -1 21 9 32 9 10 15 25 12 32 -3 7 -6 10 -7 6z"/>
<path d="M1115 2140 c-3 -5 -2 -10 4 -10 5 0 13 5 16 10 3 6 2 10 -4 10 -5 0
-13 -4 -16 -10z"/>
<path d="M1192 2119 c12 -15 30 -30 42 -33 17 -4 15 0 -9 19 -16 14 -24 25
-17 25 6 0 12 4 12 10 0 5 -11 9 -24 8 l-24 -2 20 -27z"/>
<path d="M1490 2148 c-2 -5 -3 -13 -4 -19 0 -6 -11 -16 -23 -23 l-23 -11 21
-13 c13 -9 18 -9 14 -2 -4 6 1 20 10 30 9 10 15 25 12 32 -3 7 -6 10 -7 6z"/>
<path d="M1865 2140 c-3 -5 -1 -10 4 -10 6 0 11 5 11 10 0 6 -2 10 -4 10 -3 0
-8 -4 -11 -10z"/>
<path d="M1930 2136 c6 -8 18 -12 26 -9 23 9 16 23 -12 23 -22 0 -24 -2 -14
-14z"/>
<path d="M2615 2140 c-3 -5 -1 -10 4 -10 6 0 11 5 11 10 0 6 -2 10 -4 10 -3 0
-8 -4 -11 -10z"/>
<path d="M2675 2140 c3 -5 16 -10 27 -10 26 0 16 13 -13 17 -12 2 -18 -1 -14
-7z"/>
<path d="M258 2133 c7 -3 16 -2 19 1 4 3 -2 6 -13 5 -11 0 -14 -3 -6 -6z"/>
<path d="M512 2120 c11 -33 135 -82 135 -54 0 7 -4 11 -8 8 -5 -2 -21 -1 -36
3 l-28 7 30 7 30 8 -30 -1 c-54 0 -63 2 -81 19 -13 13 -16 14 -12 3z"/>
<path d="M2771 2111 c14 -22 34 -32 105 -55 14 -4 21 -2 21 8 0 9 -4 13 -9 10
-5 -3 -21 -2 -36 2 l-27 8 30 7 c27 6 26 6 -7 4 -27 -2 -46 3 -65 18 l-28 22
16 -24z"/>
<path d="M461 2107 c-8 -10 -7 -14 4 -14 8 0 15 6 15 14 0 7 -2 13 -4 13 -2 0
-9 -6 -15 -13z"/>
<path d="M1966 2112 c-3 -6 -1 -14 5 -17 14 -9 20 -2 10 14 -6 8 -11 9 -15 3z"/>
<path d="M2702 2109 c2 -6 14 -16 27 -20 27 -11 19 6 -11 22 -16 8 -19 8 -16
-2z"/>
<path d="M1289 2094 c14 -9 40 -23 60 -30 32 -11 37 -10 49 8 14 19 14 19 29
-1 8 -12 18 -21 23 -21 5 0 -1 11 -13 24 -20 22 -24 23 -38 10 -12 -10 -25
-13 -45 -7 l-29 7 30 7 c27 6 27 7 -10 6 -22 0 -49 3 -60 8 -15 6 -14 3 4 -11z"/>
<path d="M650 2095 c0 -10 29 -24 34 -17 3 6 -3 12 -14 15 -11 3 -20 4 -20 2z"/>
<path d="M2108 2093 c7 -3 16 -2 19 1 4 3 -2 6 -13 5 -11 0 -14 -3 -6 -6z"/>
<path d="M2031 2034 c0 -11 3 -14 6 -6 3 7 2 16 -1 19 -3 4 -6 -2 -5 -13z"/>
<path d="M236 2014 c-11 -8 -14 -14 -7 -14 7 0 10 -4 6 -9 -3 -5 -1 -12 5 -16
12 -7 23 17 18 39 -3 13 -5 13 -22 0z"/>
<path d="M980 2010 c-20 -16 -21 -19 -5 -13 18 6 19 5 5 -13 -8 -10 -10 -16
-6 -12 5 4 15 3 23 -3 10 -9 13 -4 13 25 0 20 -1 36 -2 36 -2 0 -14 -9 -28
-20z"/>
<path d="M1075 2020 c4 -6 11 -8 16 -5 14 9 11 15 -7 15 -8 0 -12 -5 -9 -10z"/>
<path d="M1737 2016 c-16 -13 -16 -14 1 -36 l18 -22 2 36 c3 41 3 40 -21 22z"/>
<path d="M1823 2023 c4 -3 1 -13 -6 -22 -11 -14 -10 -14 5 -2 16 12 16 31 1
31 -4 0 -3 -3 0 -7z"/>
<path d="M2488 2016 c-20 -15 -24 -31 -5 -20 7 5 7 1 -3 -12 -8 -10 -10 -16
-6 -12 5 4 15 3 23 -4 11 -9 13 -5 11 25 -1 21 -2 37 -3 37 0 0 -8 -7 -17 -14z"/>
<path d="M2575 2020 c4 -6 11 -8 16 -5 14 9 11 15 -7 15 -8 0 -12 -5 -9 -10z"/>
<path d="M346 1983 c-6 -14 -5 -15 5 -6 7 7 10 15 7 18 -3 3 -9 -2 -12 -12z"/>
<path d="M2120 1997 c0 -2 6 -10 14 -16 11 -9 16 -9 22 1 4 7 4 10 -1 6 -4 -4
-14 -3 -22 3 -7 6 -13 9 -13 6z"/>
<path d="M2550 1991 c0 -7 -5 -9 -12 -5 -7 5 -8 3 -3 -5 5 -9 10 -10 18 -2 6
6 8 14 4 18 -4 3 -7 1 -7 -6z"/>
<path d="M2596 1985 c-9 -26 -7 -32 5 -12 6 10 9 21 6 23 -2 3 -7 -2 -11 -11z"/>
<path d="M185 1980 c-3 -5 -2 -10 4 -10 5 0 13 5 16 10 3 6 2 10 -4 10 -5 0
-13 -4 -16 -10z"/>
<path d="M877 1976 c-10 -8 -15 -20 -11 -30 9 -24 18 -20 31 14 12 33 8 37
-20 16z"/>
<path d="M1627 1976 c-10 -8 -15 -20 -11 -30 9 -24 18 -20 31 14 12 33 8 37
-20 16z"/>
<path d="M1686 1982 c-2 -4 4 -8 14 -8 10 0 16 4 14 8 -3 4 -9 8 -14 8 -5 0
-11 -4 -14 -8z"/>
<path d="M2377 1976 c-10 -8 -15 -20 -11 -30 9 -24 18 -20 31 14 12 33 8 37
-20 16z"/>
<path d="M1805 1960 c-3 -6 1 -7 9 -4 18 7 21 14 7 14 -6 0 -13 -4 -16 -10z"/>
<path d="M208 1953 c7 -3 16 -2 19 1 4 3 -2 6 -13 5 -11 0 -14 -3 -6 -6z"/>
<path d="M1024 1952 c4 -7 13 -23 20 -37 12 -22 14 -23 18 -8 3 12 -4 26 -20
37 -14 11 -22 14 -18 8z"/>
<path d="M2531 1939 c9 -14 19 -34 21 -44 3 -17 5 -16 9 5 4 20 -1 31 -20 45
l-26 20 16 -26z"/>
<path d="M280 1941 c0 -6 5 -13 10 -16 6 -3 10 -15 10 -27 0 -15 -4 -18 -17
-14 -10 4 -14 4 -10 0 4 -4 0 -16 -10 -26 -16 -17 -15 -17 14 -3 38 19 49 66
21 84 -10 6 -18 7 -18 2z"/>
<path d="M1780 1946 c0 -2 6 -16 14 -30 12 -24 14 -24 18 -8 3 12 -2 23 -13
31 -11 6 -19 9 -19 7z"/>
<path d="M2491 1924 c0 -11 3 -14 6 -6 3 7 2 16 -1 19 -3 4 -6 -2 -5 -13z"/>
<path d="M70 1919 c0 -5 5 -7 10 -4 6 3 10 8 10 11 0 2 -4 4 -10 4 -5 0 -10
-5 -10 -11z"/>
<path d="M1570 1919 c0 -5 5 -7 10 -4 6 3 10 8 10 11 0 2 -4 4 -10 4 -5 0 -10
-5 -10 -11z"/>
<path d="M1090 1901 c0 -6 4 -13 10 -16 6 -3 7 1 4 9 -7 18 -14 21 -14 7z"/>
<path d="M2585 1900 c3 -5 8 -10 11 -10 2 0 4 5 4 10 0 6 -5 10 -11 10 -5 0
-7 -4 -4 -10z"/>
<path d="M1776 1876 c7 -18 34 -22 34 -4 0 6 -3 8 -7 5 -3 -4 -12 -2 -20 5
-11 8 -12 7 -7 -6z"/>
<path d="M2520 1876 c0 -10 8 -16 22 -16 12 0 19 1 17 3 -2 1 -12 9 -21 16
-15 12 -18 11 -18 -3z"/>
<path d="M1025 1869 c7 -11 35 -12 35 -1 0 4 -9 8 -20 9 -11 1 -18 -2 -15 -8z"/>
<path d="M360 1854 c-62 -10 -100 -26 -119 -51 -12 -14 -21 -29 -21 -34 0 -16
26 2 43 30 14 24 26 30 64 35 69 8 103 7 125 -5 11 -6 22 -8 26 -5 8 8 -2 16
-29 22 -43 10 -64 12 -89 8z"/>
<path d="M1087 1850 c-59 -10 -86 -28 -110 -70 -19 -31 -19 -31 0 -20 10 7 26
25 36 41 13 24 23 29 54 29 21 0 44 4 52 9 13 8 56 2 95 -14 14 -6 17 -4 14 6
-3 8 -13 15 -24 16 -10 1 -30 4 -44 7 -14 2 -47 1 -73 -4z"/>
<path d="M1860 1854 c-65 -11 -100 -26 -119 -53 -24 -34 -26 -42 -8 -35 7 2
21 17 30 33 15 26 23 29 91 36 53 5 80 3 94 -6 12 -7 24 -10 28 -6 10 9 2 17
-27 23 -43 10 -64 12 -89 8z"/>
<path d="M2590 1851 c-25 -3 -56 -14 -69 -23 -23 -17 -61 -66 -61 -80 0 -11
32 22 53 55 14 21 25 27 55 27 20 0 43 4 51 9 12 8 56 2 94 -14 12 -5 17 -3
17 8 0 9 -9 15 -22 15 -13 0 -34 3 -48 5 -14 3 -45 2 -70 -2z"/>
<path d="M136 1833 c-6 -14 -5 -15 5 -6 7 7 10 15 7 18 -3 3 -9 -2 -12 -12z"/>
<path d="M1115 1819 c-26 -6 -23 -7 18 -8 26 0 47 1 47 3 0 9 -37 12 -65 5z"/>
<path d="M1860 1819 c-31 -6 -30 -6 18 -8 28 0 52 1 52 3 0 8 -37 11 -70 5z"/>
<path d="M2610 1820 c-20 -6 -14 -8 25 -8 37 -1 45 2 30 8 -24 10 -23 10 -55
0z"/>
<path d="M363 1813 c15 -2 37 -2 50 0 12 2 0 4 -28 4 -27 0 -38 -2 -22 -4z"/>
<path d="M349 1793 c-1 -5 -1 -16 0 -25 2 -12 -3 -16 -13 -12 -18 7 -56 -12
-78 -40 l-17 -21 5 25 5 25 -14 -25 c-12 -21 -16 -70 -7 -90 1 -3 2 -9 1 -13
-1 -5 3 -6 9 -2 7 4 8 11 2 18 -18 23 28 93 66 101 88 18 143 18 162 1 11 -10
17 -22 14 -26 -3 -5 7 -4 22 3 22 10 28 10 32 0 5 -15 22 -6 22 13 0 8 -11 14
-27 14 -33 0 -54 4 -68 13 -6 3 -30 9 -55 13 -52 8 -63 13 -55 26 4 5 4 9 1 9
-3 0 -7 -3 -7 -7z"/>
<path d="M372 1794 c3 -3 25 -7 49 -9 31 -3 39 -2 29 5 -16 10 -87 14 -78 4z"/>
<path d="M1122 1795 c2 -3 24 -7 49 -10 31 -4 40 -2 29 5 -15 10 -88 15 -78 5z"/>
<path d="M1849 1793 c-1 -5 -1 -16 0 -25 2 -12 -3 -16 -12 -12 -19 7 -73 -20
-80 -41 -4 -8 -13 -15 -22 -15 -10 0 -15 -10 -15 -29 0 -16 -6 -32 -12 -35 -7
-3 -4 -4 7 -3 12 1 19 -3 17 -11 -1 -8 2 -11 8 -7 7 4 7 12 0 26 -9 16 -5 26
29 59 27 27 49 40 68 40 15 1 45 3 66 6 21 3 50 0 66 -7 25 -11 28 -16 18 -29
-10 -13 -10 -13 5 -1 11 8 28 11 43 7 18 -5 25 -2 25 9 0 9 -9 15 -22 15 -27
-1 -57 5 -78 13 -8 3 -35 10 -60 15 -26 5 -44 14 -42 20 1 7 0 12 -3 12 -3 0
-6 -3 -6 -7z"/>
<path d="M1883 1789 c9 -5 21 -8 26 -4 5 3 22 1 38 -5 26 -9 27 -9 9 5 -11 8
-36 15 -55 15 -30 -1 -33 -2 -18 -11z"/>
<path d="M2622 1795 c2 -3 24 -7 49 -10 31 -4 40 -2 29 5 -15 10 -88 15 -78 5z"/>
<path d="M1100 1764 c0 -8 -6 -11 -14 -8 -18 7 -72 -21 -80 -41 -3 -8 -11 -14
-18 -13 -8 2 -14 -9 -16 -27 -2 -16 -1 -27 3 -23 4 3 6 9 6 12 0 3 15 21 35
41 36 36 38 37 158 39 56 1 50 8 -20 22 -43 8 -54 8 -54 -2z"/>
<path d="M2600 1766 c0 -9 -6 -13 -14 -10 -18 7 -56 -12 -78 -40 l-17 -21 5
25 c6 24 5 23 -10 -4 -19 -34 -19 -36 -3 -36 7 0 24 14 39 30 19 22 35 30 60
31 18 0 52 2 76 6 32 4 48 1 61 -11 10 -9 22 -13 26 -9 5 5 3 0 -4 -10 -13
-16 -12 -17 14 -7 22 8 30 8 36 -2 6 -9 10 -8 15 5 8 21 -10 45 -20 28 -4 -7
-20 -5 -46 4 -22 8 -57 16 -77 17 -21 2 -44 7 -51 12 -7 4 -12 1 -12 -8z"/>
<path d="M1289 1765 c-1 -3 -2 -11 -3 -17 -2 -14 -9 -14 -40 -2 -14 5 -17 3
-14 -12 2 -13 13 -19 41 -19 36 -2 51 15 27 30 -6 4 -8 11 -5 16 4 5 4 9 1 9
-3 0 -7 -2 -7 -5z"/>
<path d="M880 1751 c0 -6 4 -13 10 -16 6 -3 7 1 4 9 -7 18 -14 21 -14 7z"/>
<path d="M1693 1724 c-6 -13 -7 -24 -3 -24 9 0 25 39 18 45 -2 2 -8 -7 -15
-21z"/>
<path d="M946 1725 c-9 -26 -7 -32 5 -12 6 10 9 21 6 23 -2 3 -7 -2 -11 -11z"/>
<path d="M1736 1723 c-6 -14 -5 -15 5 -6 7 7 10 15 7 18 -3 3 -9 -2 -12 -12z"/>
<path d="M195 1719 c-4 -6 -5 -12 -2 -15 2 -3 7 2 10 11 7 17 1 20 -8 4z"/>
<path d="M2445 1719 c-4 -6 -5 -12 -2 -15 2 -3 7 2 10 11 7 17 1 20 -8 4z"/>
<path d="M1148 1688 c5 -5 16 -8 23 -6 8 3 3 7 -10 11 -17 4 -21 3 -13 -5z"/>
<path d="M408 1683 c7 -3 16 -2 19 1 4 3 -2 6 -13 5 -11 0 -14 -3 -6 -6z"/>
<path d="M1220 1680 c-8 -5 -12 -12 -9 -15 4 -3 12 1 19 10 14 17 11 19 -10 5z"/>
<path d="M1908 1683 c7 -3 16 -2 19 1 4 3 -2 6 -13 5 -11 0 -14 -3 -6 -6z"/>
<path d="M1970 1680 c-9 -6 -10 -10 -3 -10 6 0 15 5 18 10 8 12 4 12 -15 0z"/>
<path d="M2658 1683 c7 -3 16 -2 19 1 4 3 -2 6 -13 5 -11 0 -14 -3 -6 -6z"/>
<path d="M916 1635 c13 -119 50 -225 86 -248 26 -18 91 -30 82 -16 -3 5 -14 9
-26 9 -27 0 -92 65 -84 86 3 8 2 12 -3 9 -9 -5 -27 63 -36 133 -2 15 -8 38
-14 52 -8 20 -9 15 -5 -25z"/>
<path d="M1665 1660 c2 -14 7 -49 10 -79 7 -58 45 -162 68 -186 8 -7 28 -17
43 -20 l29 -7 -32 21 c-39 24 -67 66 -57 82 4 7 3 9 -3 6 -12 -8 -33 64 -33
115 -1 18 -7 47 -15 63 -13 27 -14 28 -10 5z"/>
<path d="M2414 1650 c3 -14 8 -47 11 -75 9 -67 43 -154 71 -182 13 -13 35 -23
48 -23 15 0 31 -9 38 -20 7 -11 22 -20 34 -20 14 0 24 -8 28 -22 3 -13 18 -30
33 -39 21 -11 29 -24 32 -50 1 -19 4 -43 6 -54 1 -11 3 -28 4 -37 0 -11 9 -18
21 -18 11 0 20 -6 20 -12 0 -10 2 -10 8 -1 7 11 36 13 46 2 3 -3 -6 -18 -19
-33 -40 -47 -33 -52 40 -33 6 1 15 6 21 10 7 4 14 -4 17 -21 5 -26 8 -27 66
-27 38 0 61 4 61 11 0 7 -10 9 -25 6 -20 -3 -25 0 -25 17 0 21 19 25 32 6 4
-5 10 -6 15 -2 10 10 -16 27 -43 27 -17 0 -20 -5 -16 -25 4 -22 1 -25 -22 -25
-19 0 -29 7 -36 26 -13 33 -13 37 3 28 7 -5 6 -1 -2 10 -14 17 -15 17 -23 -3
-4 -12 -10 -21 -13 -21 -4 0 -3 6 1 13 4 6 -4 2 -18 -10 -43 -40 -53 -24 -10
17 35 35 45 40 69 33 15 -4 36 -6 46 -5 9 1 28 3 42 5 14 1 25 7 25 12 0 6
-50 9 -134 8 l-133 -1 -7 56 c-13 106 -26 140 -63 163 -18 12 -43 19 -53 16
-11 -3 -20 -1 -20 3 0 5 -16 14 -35 20 -39 13 -89 66 -81 87 3 8 1 11 -4 8 -6
-3 -10 -5 -10 -3 0 24 -32 173 -40 186 -9 14 -10 13 -6 -8z m276 -360 c0 -5
-7 -7 -15 -4 -8 4 -15 8 -15 10 0 2 7 4 15 4 8 0 15 -4 15 -10z"/>
<path d="M2470 1659 c0 -5 5 -7 10 -4 6 3 10 8 10 11 0 2 -4 4 -10 4 -5 0 -10
-5 -10 -11z"/>
<path d="M175 1600 c6 -82 37 -173 69 -206 7 -6 29 -17 50 -25 21 -8 41 -20
43 -26 3 -7 15 -13 28 -13 15 0 25 -7 29 -22 3 -13 18 -30 34 -39 23 -13 28
-23 30 -58 2 -23 7 -52 12 -64 13 -28 4 71 -11 125 -15 56 -76 103 -107 84 -6
-3 -12 1 -16 9 -3 8 -15 15 -27 15 -53 0 -118 113 -120 209 0 20 -5 45 -10 56
-6 14 -8 0 -4 -45z m265 -310 c0 -5 -7 -7 -15 -4 -8 4 -15 8 -15 10 0 2 7 4
15 4 8 0 15 -4 15 -10z"/>
<path d="M1243 1631 c0 -11 5 -18 9 -15 4 3 5 11 1 19 -7 21 -12 19 -10 -4z"/>
<path d="M2743 1625 c0 -8 4 -12 9 -9 5 3 6 10 3 15 -9 13 -12 11 -12 -6z"/>
<path d="M333 1603 c0 -9 4 -10 14 -2 7 6 13 12 13 14 0 1 -6 2 -13 2 -8 0
-14 -6 -14 -14z"/>
<path d="M1834 1598 l-19 -23 23 19 c21 18 27 26 19 26 -2 0 -12 -10 -23 -22z"/>
<path d="M453 1603 c4 -3 -1 -12 -11 -20 -15 -13 -15 -13 6 -3 19 9 23 30 5
30 -4 0 -3 -3 0 -7z"/>
<path d="M1051 1596 c-10 -12 -8 -14 14 -12 31 4 40 12 26 21 -6 3 -11 1 -11
-4 0 -6 -5 -11 -11 -11 -5 0 -7 5 -4 10 9 15 -1 12 -14 -4z"/>
<path d="M2561 1593 c0 -10 3 -13 5 -6 3 7 13 9 22 6 15 -4 15 -3 2 6 -22 15
-30 14 -29 -6z"/>
<path d="M365 1590 c3 -5 8 -10 11 -10 2 0 4 5 4 10 0 6 -5 10 -11 10 -5 0 -7
-4 -4 -10z"/>
<path d="M2610 1589 c0 -5 5 -7 10 -4 6 3 10 8 10 11 0 2 -4 4 -10 4 -5 0 -10
-5 -10 -11z"/>
<path d="M2700 1589 c0 -5 -4 -7 -10 -4 -5 3 -10 1 -10 -4 0 -13 3 -13 24 -5
18 7 22 24 6 24 -5 0 -10 -5 -10 -11z"/>
<path d="M1930 1580 c0 -5 5 -10 11 -10 5 0 7 5 4 10 -3 6 -8 10 -11 10 -2 0
-4 -4 -4 -10z"/>
<path d="M1765 1554 c-9 -14 -22 -23 -30 -21 -9 4 -11 -1 -8 -14 7 -25 23 -24
30 1 3 11 9 20 13 20 4 0 10 9 13 20 7 27 3 25 -18 -6z"/>
<path d="M1018 1550 c-7 -11 -18 -20 -25 -20 -7 0 -13 -7 -13 -15 0 -28 22
-11 51 38 14 24 2 22 -13 -3z"/>
<path d="M1960 1566 c0 -2 8 -10 18 -17 15 -13 16 -12 3 4 -13 16 -21 21 -21
13z"/>
<path d="M256 1545 c-10 -8 -22 -12 -27 -10 -4 3 -5 -4 -2 -15 7 -26 14 -25
36 6 22 30 19 38 -7 19z"/>
<path d="M2510 1545 c-15 -18 -35 -20 -24 -3 4 6 3 8 -4 5 -12 -8 -4 -47 9
-47 6 0 13 8 16 18 4 9 14 22 22 29 9 7 11 13 5 13 -6 0 -17 -7 -24 -15z"/>
<path d="M2815 1409 c-4 -6 -5 -12 -2 -15 2 -3 7 2 10 11 7 17 1 20 -8 4z"/>
<path d="M705 1400 c-3 -5 1 -10 9 -10 8 0 18 5 21 10 3 6 -1 10 -9 10 -8 0
-18 -4 -21 -10z"/>
<path d="M1453 1403 c-13 -2 -23 -8 -23 -12 0 -11 49 -1 56 10 3 5 2 8 -3 8
-4 -1 -18 -4 -30 -6z"/>
<path d="M2205 1400 c-19 -8 -19 -9 2 -9 12 -1 25 4 28 9 7 12 -2 12 -30 0z"/>
<path d="M2955 1403 c-11 -3 -24 -9 -30 -14 -12 -12 56 0 70 12 10 10 -6 10
-40 2z"/>
<path d="M415 1390 l-40 -6 46 -4 c25 -3 59 -2 75 1 50 11 -14 18 -81 9z"/>
<path d="M1170 1389 l-35 -6 42 -2 c49 -1 75 -10 67 -22 -3 -5 -3 -9 0 -9 3 0
10 9 15 19 9 16 6 19 -22 22 -17 2 -48 1 -67 -2z"/>
<path d="M1280 1391 c0 -6 4 -13 10 -16 6 -3 7 1 4 9 -7 18 -14 21 -14 7z"/>
<path d="M1915 1389 c-35 -5 -32 -6 23 -8 35 0 61 -5 58 -9 -3 -5 1 -9 9 -9 8
0 13 5 12 11 -1 6 5 10 13 8 8 -2 11 0 7 5 -10 9 -66 10 -122 2z"/>
<path d="M2670 1389 c-29 -5 -26 -7 24 -8 51 -1 57 -3 52 -18 -5 -15 -4 -15 9
1 8 11 15 25 14 30 0 6 -3 5 -6 -2 -2 -6 -10 -9 -16 -5 -15 9 -35 10 -77 2z"/>
<path d="M670 1380 c0 -5 5 -10 10 -10 6 0 10 5 10 10 0 6 -4 10 -10 10 -5 0
-10 -4 -10 -10z"/>
<path d="M2140 1386 c0 -2 7 -9 15 -16 13 -11 14 -10 9 4 -5 14 -24 23 -24 12z"/>
<path d="M1821 1375 c0 -20 27 -45 48 -45 12 0 21 -6 21 -14 0 -8 16 -27 35
-42 30 -22 35 -33 36 -68 0 -22 4 -50 9 -61 15 -35 12 28 -6 105 -13 60 -20
72 -50 90 -18 12 -42 20 -51 18 -10 -2 -23 3 -30 12 -7 8 -12 11 -12 5z m119
-85 c0 -5 -7 -7 -15 -4 -8 4 -15 8 -15 10 0 2 7 4 15 4 8 0 15 -4 15 -10z"/>
<path d="M458 1338 c5 -5 16 -8 23 -6 8 3 3 7 -10 11 -17 4 -21 3 -13 -5z"/>
<path d="M1965 1336 c17 -8 32 -12 34 -10 7 6 -2 11 -34 17 l-30 6 30 -13z"/>
<path d="M1210 1336 c0 -2 9 -6 20 -9 11 -3 18 -1 14 4 -5 9 -34 13 -34 5z"/>
<path d="M2710 1336 c0 -2 9 -6 20 -9 11 -3 20 -1 20 4 0 5 -9 9 -20 9 -11 0
-20 -2 -20 -4z"/>
<path d="M2746 1267 c3 -10 9 -15 12 -12 3 3 0 11 -7 18 -10 9 -11 8 -5 -6z"/>
<path d="M495 1221 c-3 -5 -1 -12 5 -16 5 -3 10 1 10 9 0 18 -6 21 -15 7z"/>
<path d="M2750 1225 c-5 -21 2 -71 12 -80 8 -7 9 -6 4 3 -4 7 -2 20 6 29 8 10
8 14 1 10 -7 -5 -13 2 -16 20 -2 16 -5 24 -7 18z"/>
<path d="M1248 1185 c2 -19 9 -38 15 -42 7 -4 8 0 4 11 -4 10 -7 29 -7 42 0
13 -4 24 -8 24 -4 0 -6 -16 -4 -35z"/>
<path d="M2000 1191 c4 -16 6 -32 3 -34 -2 -3 1 -8 8 -13 9 -5 10 -1 6 17 -4
13 -7 32 -7 42 0 9 -4 17 -9 17 -6 0 -6 -12 -1 -29z"/>
<path d="M2799 1178 c4 -28 6 -29 9 -9 2 13 0 27 -5 32 -6 6 -7 -3 -4 -23z"/>
<path d="M501 1173 c-1 -12 4 -25 9 -28 12 -7 12 2 0 30 -8 19 -9 19 -9 -2z"/>
<path d="M316 1131 c-3 -4 5 -6 18 -4 17 4 27 -1 35 -15 6 -11 7 -23 3 -27 -4
-4 2 -3 14 3 11 6 26 18 34 26 11 14 9 16 -10 16 -17 0 -21 -4 -15 -17 4 -13
1 -12 -15 5 -21 22 -54 29 -64 13z"/>
<path d="M1061 1136 c3 -3 20 -8 39 -11 25 -4 31 -3 20 5 -14 9 -68 15 -59 6z"/>
<path d="M1810 1134 c0 -5 16 -9 35 -10 20 0 41 -6 48 -13 9 -10 9 -11 -4 -6
-10 4 -16 0 -16 -10 0 -8 5 -14 10 -12 13 4 33 35 27 41 -10 9 -100 18 -100
10z"/>
<path d="M2560 1136 c0 -2 9 -6 20 -9 11 -3 20 -1 20 4 0 5 -9 9 -20 9 -11 0
-20 -2 -20 -4z"/>
<path d="M19 1103 c-19 -20 -19 -21 -2 -20 10 1 22 8 26 15 10 15 47 16 47 1
0 -5 5 -7 10 -4 17 10 11 -23 -7 -45 -19 -22 -39 -28 -27 -8 13 21 12 46 -2
41 -8 -3 -13 -8 -12 -11 3 -26 -4 -34 -28 -29 -19 3 -24 1 -20 -10 3 -8 6 -20
6 -26 0 -7 4 -6 10 3 5 8 12 11 16 7 4 -4 -3 -19 -17 -34 -18 -19 -19 -25 -7
-20 10 3 20 2 23 -3 4 -6 12 -10 18 -10 7 0 4 7 -6 14 -17 13 -16 15 9 35 15
12 29 19 32 16 7 -7 -17 -54 -41 -82 -11 -12 -16 -26 -13 -32 4 -5 -1 -14 -9
-19 -14 -7 -12 -12 11 -35 33 -33 41 -34 66 -2 20 25 38 33 38 16 0 -5 -9 -13
-21 -16 -16 -5 -18 -9 -8 -21 9 -12 9 -13 -2 -9 -8 3 -23 -2 -34 -10 -19 -16
-19 -16 8 -10 25 5 27 4 18 -14 -7 -13 -18 -18 -33 -14 -22 4 -22 4 -3 -8 11
-7 23 -17 27 -23 5 -7 8 -4 8 7 0 10 5 15 10 12 6 -3 11 1 11 9 2 25 4 29 18
56 23 41 23 89 0 167 -17 55 -20 79 -12 96 17 37 15 40 -38 41 -39 1 -55 -4
-70 -21z m99 -108 c2 -27 -1 -35 -14 -35 -12 0 -15 6 -10 23 3 12 6 28 6 35 0
29 16 9 18 -23z m-30 -71 c-2 -15 3 -29 9 -31 9 -3 11 4 7 26 -4 18 -2 31 4
31 24 0 19 -50 -9 -82 -16 -18 -28 -28 -29 -21 0 7 -7 10 -14 7 -12 -5 -14 3
-12 33 2 23 7 37 15 35 6 -1 14 5 17 13 9 23 15 18 12 -11z"/>
<path d="M200 1118 c0 -5 -5 -6 -12 -2 -7 4 -8 3 -4 -4 5 -9 13 -9 27 -2 11 6
24 8 29 5 5 -3 11 -2 14 3 3 5 -8 8 -25 8 -16 0 -29 -4 -29 -8z"/>
<path d="M950 1118 c0 -5 -6 -6 -12 -2 -7 4 -9 3 -5 -1 11 -12 37 -15 37 -4 0
4 6 6 14 3 8 -3 16 -1 19 4 3 4 -7 8 -24 8 -16 0 -29 -4 -29 -8z"/>
<path d="M1145 1115 c-16 -7 -26 -14 -22 -14 4 -1 2 -11 -4 -23 -9 -17 -2 -14
25 11 48 46 48 48 1 26z"/>
<path d="M1700 1117 c0 -4 -5 -5 -12 -1 -7 4 -8 3 -4 -4 5 -8 13 -9 25 -2 10
5 21 6 25 3 3 -3 6 -1 6 5 0 6 -9 10 -20 9 -11 -1 -20 -5 -20 -10z"/>
<path d="M2278 1113 c-5 -7 -6 -17 -2 -24 5 -8 9 -7 16 5 10 18 48 22 48 5 0
-5 5 -7 10 -4 6 3 10 -1 10 -10 0 -22 -27 -30 -47 -14 -9 8 -14 9 -11 4 4 -6
3 -17 -2 -25 -7 -11 -16 -11 -48 -2 -58 18 -71 16 -65 -9 3 -12 0 -25 -7 -29
-7 -5 4 -9 29 -12 26 -2 41 1 41 8 0 7 -10 9 -25 6 -20 -3 -25 0 -25 16 0 11
6 19 13 18 29 -7 47 -19 47 -35 0 -14 2 -14 10 -1 5 8 12 12 15 8 8 -7 -39
-58 -53 -58 -6 0 -9 7 -6 15 5 13 2 13 -30 0 -20 -8 -36 -12 -36 -8 0 4 -6 -1
-12 -9 -12 -15 -17 -15 -51 -3 -22 7 -50 23 -63 36 -13 12 -24 18 -24 11 0
-15 46 -49 85 -62 28 -9 39 -9 57 4 25 18 68 21 68 6 0 -6 13 -4 29 5 19 9 32
11 36 5 3 -6 12 -10 18 -10 7 0 4 7 -6 14 -17 13 -16 15 9 35 15 12 29 19 32
16 6 -6 -25 -72 -38 -80 -5 -3 -6 -13 -3 -22 4 -11 3 -14 -6 -9 -7 4 -10 3 -9
-5 2 -6 -2 -13 -9 -16 -7 -2 -13 8 -16 24 -2 15 -4 -182 -5 -439 -2 -322 1
-468 8 -468 7 0 9 135 6 437 l-5 436 27 -26 c35 -33 39 -33 64 -2 19 25 38 33
38 17 0 -5 -9 -13 -19 -18 -17 -8 -18 -11 -6 -27 13 -18 14 -17 28 10 21 42
20 86 -4 165 -20 66 -21 72 -5 98 9 16 16 30 16 32 0 9 -113 1 -122 -9z m52
-73 c0 -5 -5 -10 -11 -10 -5 0 -7 5 -4 10 3 6 8 10 11 10 2 0 4 -4 4 -10z m38
-45 c2 -27 -1 -35 -14 -35 -12 0 -15 6 -10 23 3 12 6 28 6 35 0 29 16 9 18
-23z m-19 -62 c1 26 18 21 23 -8 4 -17 -3 -34 -23 -57 -16 -18 -28 -28 -29
-21 0 7 -7 10 -17 6 -13 -5 -15 -2 -9 18 5 13 8 32 9 41 1 9 5 14 9 12 5 -3
11 3 15 12 6 16 7 16 14 -2 7 -17 8 -17 8 -1z"/>
<path d="M2326 901 c-4 -5 1 -8 9 -7 21 3 31 16 12 16 -9 0 -18 -4 -21 -9z"/>
<path d="M2450 1119 c0 -5 -5 -7 -12 -3 -7 4 -8 3 -4 -4 4 -6 13 -9 21 -6 8 4
12 10 9 15 -7 12 -14 11 -14 -2z"/>
<path d="M2480 1118 c0 -4 4 -8 9 -8 6 0 12 4 15 8 3 5 -1 9 -9 9 -8 0 -15 -4
-15 -9z"/>
<path d="M2618 1113 c7 -13 7 -25 -1 -38 -7 -13 1 -9 21 10 37 35 38 37 15 33
-10 -1 -24 1 -31 6 -11 7 -12 4 -4 -11z"/>
<path d="M910 1089 c0 -5 5 -7 10 -4 6 3 10 8 10 11 0 2 -4 4 -10 4 -5 0 -10
-5 -10 -11z"/>
<path d="M1660 1090 c0 -5 5 -10 10 -10 6 0 10 5 10 10 0 6 -4 10 -10 10 -5 0
-10 -4 -10 -10z"/>
<path d="M2410 1089 c0 -5 5 -7 10 -4 6 3 10 8 10 11 0 2 -4 4 -10 4 -5 0 -10
-5 -10 -11z"/>
<path d="M458 1083 c7 -3 16 -2 19 1 4 3 -2 6 -13 5 -11 0 -14 -3 -6 -6z"/>
<path d="M710 1080 c20 -13 40 -13 40 0 0 6 -12 10 -27 10 -22 0 -25 -2 -13
-10z"/>
<path d="M1460 1080 c20 -13 40 -13 40 0 0 6 -12 10 -27 10 -22 0 -25 -2 -13
-10z"/>
<path d="M2960 1080 c20 -13 40 -13 40 0 0 6 -12 10 -27 10 -22 0 -25 -2 -13
-10z"/>
<path d="M655 1070 c-3 -5 -1 -10 4 -10 6 0 11 5 11 10 0 6 -2 10 -4 10 -3 0
-8 -4 -11 -10z"/>
<path d="M1060 1060 c0 -5 7 -15 15 -24 22 -21 18 -28 -7 -15 -13 6 -20 8 -16
4 13 -14 -22 -37 -63 -41 -64 -8 -39 28 35 51 10 3 16 8 13 11 -3 3 -21 1 -39
-5 -34 -11 -63 -45 -53 -61 3 -5 -3 -11 -12 -14 -10 -3 -6 -4 9 -2 20 2 26 -1
25 -15 -1 -13 -4 -15 -14 -8 -7 6 -18 9 -25 6 -8 -4 -7 -6 5 -6 20 -1 23 -17
5 -25 -7 -3 3 -3 22 0 19 4 42 12 51 20 13 12 17 11 31 -2 13 -13 20 -14 39
-4 19 11 25 10 38 -6 9 -11 27 -24 41 -30 74 -33 117 -105 71 -117 -22 -6 -41
10 -41 34 0 30 -63 41 -74 13 -5 -13 -2 -15 15 -11 15 4 30 -3 50 -23 34 -33
59 -33 76 1 17 32 16 50 -5 75 -26 32 -102 87 -102 75 0 -8 -12 -6 -36 4 -20
8 -47 12 -60 9 -15 -4 -24 -2 -24 6 0 6 -5 8 -12 4 -7 -4 -8 -3 -4 4 4 7 13
12 21 12 7 0 16 8 20 18 7 16 8 15 15 -3 7 -18 9 -18 21 9 11 23 11 30 1 34
-7 2 -10 7 -7 12 3 4 -2 10 -10 14 -8 3 -15 1 -15 -4z m-65 -109 c3 -5 1 -12
-5 -16 -5 -3 -10 1 -10 9 0 18 6 21 15 7z"/>
<path d="M324 1042 c23 -26 23 -26 23 -7 0 8 -3 13 -5 10 -3 -3 -12 1 -21 7
-10 8 -9 4 3 -10z"/>
<path d="M1810 1051 c0 -5 9 -15 19 -20 14 -8 20 -7 25 4 3 8 1 15 -3 15 -5 0
-16 3 -25 6 -9 3 -16 1 -16 -5z"/>
<path d="M2570 1046 c0 -9 5 -16 10 -16 6 0 10 -4 10 -10 0 -5 -6 -7 -14 -4
-11 4 -13 0 -9 -17 6 -21 7 -21 20 -3 8 10 12 28 11 38 -4 24 -28 34 -28 12z"/>
<path d="M241 1037 c-13 -6 -36 -27 -50 -46 l-26 -34 28 5 c18 4 26 1 24 -6
-2 -6 -15 -10 -28 -9 -15 1 -17 0 -6 -3 19 -6 23 -24 5 -24 -6 0 -9 -3 -6 -6
9 -9 86 15 92 29 3 7 7 3 11 -10 7 -22 8 -22 38 -6 22 11 32 12 35 4 2 -6 10
-11 18 -11 8 0 14 -4 14 -8 0 -4 15 -16 33 -26 49 -29 77 -57 78 -80 0 -20 1
-20 11 2 14 28 -5 67 -42 90 -14 9 -41 29 -60 46 -19 17 -28 23 -21 13 8 -9
11 -21 7 -24 -4 -4 -10 -3 -14 3 -11 18 -62 26 -78 13 -11 -9 -15 -8 -20 5 -3
9 -10 13 -15 10 -5 -3 -9 -3 -9 1 0 3 10 10 23 15 16 7 8 8 -30 4 -33 -3 -53
-1 -53 5 0 15 43 41 72 43 15 1 24 6 22 10 -7 11 -25 10 -53 -5z m4 -86 c3 -5
1 -12 -5 -16 -5 -3 -10 1 -10 9 0 18 6 21 15 7z"/>
<path d="M645 1041 c-7 -12 12 -24 25 -16 11 7 4 25 -10 25 -5 0 -11 -4 -15
-9z"/>
<path d="M1395 1041 c-7 -12 12 -24 25 -16 11 7 4 25 -10 25 -5 0 -11 -4 -15
-9z"/>
<path d="M1729 1030 c-15 -11 -34 -32 -44 -46 -17 -27 -17 -27 8 -22 20 4 25
1 24 -13 -1 -13 -4 -15 -14 -8 -7 6 -18 9 -25 6 -8 -4 -7 -6 5 -6 19 -1 24
-21 5 -21 -6 0 -9 -3 -6 -6 9 -9 88 16 88 28 0 7 6 6 15 -2 13 -11 13 -15 3
-21 -23 -15 2 -10 33 7 32 16 34 16 83 -28 11 -10 23 -18 27 -18 18 0 69 -54
69 -73 0 -18 2 -19 10 -7 5 8 10 22 10 31 0 29 -113 128 -125 109 -4 -6 -13
-5 -25 2 -10 7 -17 15 -14 19 6 10 -38 -2 -53 -14 -9 -6 -15 -4 -19 7 -3 9
-11 13 -17 9 -6 -3 -7 -1 -3 5 4 7 14 12 22 12 8 0 14 5 14 11 0 8 4 8 14 0
11 -9 16 -9 21 -1 12 19 -8 26 -55 19 -37 -5 -39 -6 -15 -9 27 -2 26 -3 -13
-12 -24 -5 -47 -7 -50 -3 -10 10 37 45 59 45 10 0 21 5 24 10 11 17 -29 10
-56 -10z m16 -79 c3 -5 1 -12 -5 -16 -5 -3 -10 1 -10 9 0 18 6 21 15 7z"/>
<path d="M2145 1041 c-7 -12 12 -24 25 -16 11 7 4 25 -10 25 -5 0 -11 -4 -15
-9z"/>
<path d="M2495 1041 c-31 -13 -56 -46 -49 -64 3 -10 10 -14 15 -11 13 8 10 -8
-5 -28 -7 -10 -16 -15 -19 -11 -4 3 -7 1 -7 -5 0 -15 1 -15 53 -1 31 7 43 16
44 30 1 12 -3 17 -9 13 -7 -4 -8 -2 -4 4 4 7 13 12 21 12 7 0 15 7 19 15 3 8
1 15 -3 15 -5 0 -11 -5 -13 -11 -4 -13 -88 -23 -88 -10 0 14 41 41 62 41 10 0
18 5 18 10 0 12 -8 12 -35 1z m0 -90 c3 -5 1 -12 -5 -16 -5 -3 -10 1 -10 9 0
18 6 21 15 7z"/>
<path d="M2895 1041 c-7 -12 12 -24 25 -16 11 7 4 25 -10 25 -5 0 -11 -4 -15
-9z"/>
<path d="M1171 1029 c-1 -10 9 -19 24 -23 14 -4 25 -11 25 -17 0 -6 -6 -7 -12
-3 -9 5 -9 3 1 -9 21 -27 33 -9 15 24 -9 19 -21 29 -29 25 -8 -3 -16 0 -19 7
-2 7 -5 5 -5 -4z"/>
<path d="M2540 1030 c0 -5 5 -10 11 -10 5 0 7 5 4 10 -3 6 -8 10 -11 10 -2 0
-4 -4 -4 -10z"/>
<path d="M2682 1024 c-11 -12 -10 -14 3 -14 9 0 14 -4 11 -8 -5 -8 28 -52 39
-52 9 0 -3 35 -13 36 -25 3 -27 5 -12 14 13 8 13 11 0 24 -13 12 -17 13 -28 0z"/>
<path d="M426 1021 c-2 -3 9 -19 25 -36 25 -26 29 -28 28 -10 -1 31 -12 50
-32 51 -9 1 -19 -1 -21 -5z"/>
<path d="M1925 1020 c-3 -5 -1 -10 4 -10 6 0 11 5 11 10 0 6 -2 10 -4 10 -3 0
-8 -4 -11 -10z"/>
<path d="M1948 1012 c-4 -13 1 -27 13 -38 18 -16 19 -16 19 3 0 10 -6 27 -13
38 -13 17 -14 17 -19 -3z m22 -22 c0 -5 -2 -10 -4 -10 -3 0 -8 5 -11 10 -3 6
-1 10 4 10 6 0 11 -4 11 -10z"/>
<path d="M300 1009 c-24 -7 -24 -7 -2 -8 12 -1 22 -6 22 -13 0 -9 3 -9 12 0
17 17 -2 30 -32 21z"/>
<path d="M565 1010 c-16 -6 -12 -8 18 -12 20 -2 37 -3 37 -1 0 10 -39 19 -55
13z"/>
<path d="M1315 1010 c-16 -6 -12 -8 18 -12 20 -2 37 -3 37 -1 0 10 -39 19 -55
13z"/>
<path d="M1870 1009 c0 -5 5 -7 10 -4 6 3 10 8 10 11 0 2 -4 4 -10 4 -5 0 -10
-5 -10 -11z"/>
<path d="M2065 1010 c-16 -6 -12 -8 18 -12 20 -2 37 -3 37 -1 0 10 -39 19 -55
13z"/>
<path d="M2815 1010 c-16 -6 -12 -8 18 -12 20 -2 37 -3 37 -1 0 10 -39 19 -55
13z"/>
<path d="M248 1003 c7 -3 16 -2 19 1 4 3 -2 6 -13 5 -11 0 -14 -3 -6 -6z"/>
<path d="M510 1002 c0 -16 46 -49 87 -63 27 -9 37 -8 46 1 9 10 9 11 0 6 -16
-9 -81 19 -110 46 -13 12 -23 17 -23 10z"/>
<path d="M1260 1002 c0 -16 37 -43 87 -62 39 -15 50 -16 50 -5 0 7 -6 11 -13
8 -14 -5 -84 29 -108 52 -9 9 -16 12 -16 7z"/>
<path d="M2498 1003 c6 -2 18 -2 25 0 6 3 1 5 -13 5 -14 0 -19 -2 -12 -5z"/>
<path d="M2760 1002 c0 -15 46 -49 84 -62 26 -8 39 -7 61 4 32 17 43 14 29 -7
-5 -7 0 -4 10 8 12 13 20 16 23 8 5 -13 33 -6 33 8 0 4 -7 6 -15 3 -11 -5 -13
-2 -9 11 6 15 4 16 -14 6 -11 -6 -28 -11 -38 -11 -9 0 -22 -7 -28 -16 -11 -15
-15 -14 -51 1 -22 9 -50 26 -62 37 -13 12 -23 17 -23 10z"/>
<path d="M580 976 c0 -2 7 -6 15 -10 8 -3 15 -1 15 4 0 6 -7 10 -15 10 -8 0
-15 -2 -15 -4z"/>
<path d="M2080 976 c0 -2 7 -7 16 -10 8 -3 12 -2 9 4 -6 10 -25 14 -25 6z"/>
<path d="M1540 960 c0 -5 5 -10 11 -10 5 0 7 5 4 10 -3 6 -8 10 -11 10 -2 0
-4 -4 -4 -10z"/>
<path d="M2547 953 c-14 -4 -16 -8 -6 -19 9 -11 9 -14 -1 -14 -8 0 -11 -3 -8
-6 4 -3 20 2 37 11 31 16 32 15 75 -20 24 -19 47 -35 53 -35 13 0 53 -44 53
-58 0 -7 -5 -21 -12 -31 -10 -17 -13 -17 -30 -2 -10 8 -18 23 -18 32 0 30 -63
41 -74 13 -5 -13 -2 -15 16 -11 15 4 28 -1 45 -19 13 -14 21 -29 19 -33 -8
-12 31 -6 48 8 22 18 30 67 14 89 -18 27 -108 94 -108 82 0 -6 -13 -4 -30 5
-29 15 -40 16 -73 8z"/>
<path d="M2428 943 c7 -3 16 -2 19 1 4 3 -2 6 -13 5 -11 0 -14 -3 -6 -6z"/>
<path d="M236 881 c-8 -13 4 -42 15 -35 12 7 12 44 0 44 -6 0 -12 -4 -15 -9z"/>
<path d="M977 879 c-9 -6 -15 -15 -12 -20 4 -5 11 -7 16 -4 5 4 9 1 9 -5 0 -6
5 -8 10 -5 12 7 14 45 3 45 -5 0 -16 -5 -26 -11z"/>
<path d="M1736 881 c-8 -12 3 -41 15 -41 5 0 9 11 9 25 0 25 -14 34 -24 16z"/>
<path d="M2479 869 c-8 -15 -8 -19 0 -15 6 4 11 2 11 -4 0 -6 5 -8 10 -5 13 8
13 45 0 45 -5 0 -14 -10 -21 -21z"/>
<path d="M2605 879 c-4 -6 -5 -12 -2 -15 2 -3 7 2 10 11 7 17 1 20 -8 4z"/>
<path d="M346 863 c-6 -14 -5 -15 5 -6 7 7 10 15 7 18 -3 3 -9 -2 -12 -12z"/>
<path d="M2550 870 c-8 -5 -12 -12 -9 -15 4 -3 12 1 19 10 14 17 11 19 -10 5z"/>
<path d="M750 432 c0 -287 3 -432 10 -432 11 0 7 847 -4 858 -3 3 -6 -189 -6
-426z"/>
<path d="M370 826 c0 -9 5 -16 10 -16 6 0 10 6 10 12 0 7 14 -2 30 -21 17 -18
28 -37 25 -42 -3 -5 1 -6 10 -3 13 5 13 9 3 21 -7 8 -17 25 -23 37 -13 26 -65
36 -65 12z"/>
<path d="M1870 824 c0 -11 5 -14 17 -10 11 5 26 -3 44 -24 29 -31 53 -38 65
-18 5 8 2 9 -11 5 -21 -9 -45 9 -45 33 0 19 -19 30 -51 30 -11 0 -19 -7 -19
-16z"/>
<path d="M289 796 c13 -26 17 -29 19 -14 2 11 -2 26 -8 34 -22 25 -28 15 -11
-20z"/>
<path d="M1038 800 c12 -21 18 -25 20 -14 4 16 -15 44 -29 44 -4 0 0 -13 9
-30z"/>
<path d="M1780 827 c0 -2 7 -20 15 -38 14 -33 14 -33 15 -8 0 15 -7 32 -15 39
-8 7 -15 10 -15 7z"/>
<path d="M2539 796 c13 -26 17 -29 19 -14 2 11 -2 26 -8 34 -22 25 -28 15 -11
-20z"/>
<path d="M2340 809 c0 -5 -4 -8 -9 -4 -5 3 -13 0 -17 -6 -5 -9 1 -10 19 -5 21
5 25 3 21 -9 -4 -8 -18 -15 -33 -16 -26 0 -26 0 -3 -10 14 -5 21 -14 17 -21
-4 -7 1 -4 9 6 9 11 16 16 17 10 0 -5 4 0 8 11 5 11 3 28 -3 38 -12 19 -26 23
-26 6z"/>
<path d="M1601 781 c-7 -13 -18 -18 -33 -14 -22 4 -22 4 -3 -8 11 -7 23 -17
27 -23 5 -7 8 -4 8 7 0 10 4 16 9 13 5 -3 11 3 14 14 7 27 -9 35 -22 11z"/>
<path d="M480 769 c0 -5 5 -7 10 -4 6 3 10 8 10 11 0 2 -4 4 -10 4 -5 0 -10
-5 -10 -11z"/>
<path d="M1015 741 c-8 -21 -2 -22 23 -2 22 16 22 17 3 17 -11 0 -23 -7 -26
-15z"/>
<path d="M1761 738 c-10 -17 -10 -18 6 -10 10 5 25 11 33 14 10 3 9 6 -6 10
-14 3 -25 -1 -33 -14z"/>
<path d="M2510 746 c0 -9 8 -12 27 -8 25 5 25 6 8 13 -29 11 -35 10 -35 -5z"/>
<path d="M265 740 c-7 -12 2 -12 30 0 19 8 19 9 -2 9 -12 1 -25 -3 -28 -9z"/>
<path d="M135 721 c-3 -5 -1 -12 5 -16 5 -3 10 1 10 9 0 18 -6 21 -15 7z"/>
<path d="M335 719 c-36 -7 -34 -7 15 -4 30 2 72 -3 93 -10 26 -9 37 -10 34 -2
-7 23 -70 31 -142 16z"/>
<path d="M1119 726 c-3 -3 -24 -6 -48 -7 -34 -2 -48 -10 -72 -37 -16 -18 -26
-38 -23 -44 4 -6 17 6 30 27 13 21 31 40 41 41 10 1 40 5 66 8 32 4 60 1 82
-9 19 -7 37 -10 40 -5 9 15 -102 39 -116 26z"/>
<path d="M1635 721 c-3 -5 -1 -12 5 -16 5 -3 10 1 10 9 0 18 -6 21 -15 7z"/>
<path d="M1835 720 c-34 -6 -30 -7 25 -6 43 1 76 -5 97 -16 31 -16 32 -16 23
1 -15 28 -64 35 -145 21z"/>
<path d="M2580 719 c-29 -7 -26 -7 20 -5 30 2 72 -2 92 -10 32 -11 38 -11 38
0 0 23 -82 31 -150 15z"/>
<path d="M259 692 c-45 -50 -54 -64 -39 -60 15 3 74 77 68 84 -3 2 -16 -9 -29
-24z"/>
<path d="M520 709 c0 -5 5 -7 10 -4 6 3 10 8 10 11 0 2 -4 4 -10 4 -5 0 -10
-5 -10 -11z"/>
<path d="M1759 692 c-14 -15 -32 -36 -40 -47 -13 -18 -13 -18 8 -4 26 18 67
68 61 74 -2 3 -16 -8 -29 -23z"/>
<path d="M2385 710 c3 -5 8 -10 11 -10 2 0 4 5 4 10 0 6 -5 10 -11 10 -5 0 -7
-4 -4 -10z"/>
<path d="M2501 684 c-17 -19 -29 -40 -25 -45 7 -12 5 -15 38 39 32 51 28 53
-13 6z"/>
<path d="M2020 706 c0 -2 8 -10 18 -17 15 -13 16 -12 3 4 -13 16 -21 21 -21
13z"/>
<path d="M371 696 c2 -2 20 -6 39 -10 25 -4 31 -3 20 4 -14 9 -69 15 -59 6z"/>
<path d="M1128 693 c6 -2 18 -2 25 0 6 3 1 5 -13 5 -14 0 -19 -2 -12 -5z"/>
<path d="M1878 693 c6 -2 18 -2 25 0 6 3 1 5 -13 5 -14 0 -19 -2 -12 -5z"/>
<path d="M2628 693 c6 -2 18 -2 25 0 6 3 1 5 -13 5 -14 0 -19 -2 -12 -5z"/>
<path d="M866 677 c3 -10 9 -15 12 -12 3 3 0 11 -7 18 -10 9 -11 8 -5 -6z"/>
<path d="M440 670 c-23 -8 -23 -8 7 -7 17 1 29 5 27 9 -3 4 -6 8 -7 7 -1 -1
-13 -5 -27 -9z"/>
<path d="M1165 670 l-50 -6 53 -4 c30 -3 56 -2 58 2 7 12 -9 14 -61 8z"/>
<path d="M1827 669 c7 -7 15 -10 18 -7 3 3 -2 9 -12 12 -14 6 -15 5 -6 -5z"/>
<path d="M1940 671 c-24 -7 -24 -7 -3 -13 14 -4 24 -1 27 8 3 8 4 14 3 13 -1
-1 -13 -4 -27 -8z"/>
<path d="M2577 669 c7 -7 15 -10 18 -7 3 3 -2 9 -12 12 -14 6 -15 5 -6 -5z"/>
<path d="M2665 670 l-50 -6 53 -4 c30 -3 56 -2 58 2 7 12 -9 14 -61 8z"/>
<path d="M155 661 c-3 -5 -2 -12 3 -15 5 -3 9 1 9 9 0 17 -3 19 -12 6z"/>
<path d="M378 663 c6 -2 18 -2 25 0 6 3 1 5 -13 5 -14 0 -19 -2 -12 -5z"/>
<path d="M1878 663 c6 -2 18 -2 25 0 6 3 1 5 -13 5 -14 0 -19 -2 -12 -5z"/>
<path d="M2525 659 c-4 -6 -5 -12 -2 -15 2 -3 7 2 10 11 7 17 1 20 -8 4z"/>
<path d="M1760 645 c-11 -13 -10 -14 4 -9 9 3 16 10 16 15 0 13 -6 11 -20 -6z"/>
<path d="M350 638 c0 -4 -11 -8 -24 -8 -13 0 -35 -9 -50 -21 -24 -19 -26 -19
-26 -2 0 13 -4 11 -14 -9 -15 -29 -19 -88 -5 -88 4 0 6 9 4 20 -3 18 6 25 28
21 5 -1 6 3 3 8 -3 5 2 18 12 29 17 21 72 34 137 34 38 0 88 -19 81 -31 -4 -5
1 -8 9 -7 32 5 26 16 -18 35 -48 21 -137 33 -137 19z"/>
<path d="M1106 638 c3 -4 -6 -8 -20 -8 -29 0 -76 -19 -76 -32 0 -4 -6 -8 -14
-8 -16 0 -29 -27 -20 -41 3 -6 1 -16 -5 -23 -8 -9 -7 -13 4 -13 8 0 12 3 10 7
-2 4 9 25 25 47 23 31 39 42 67 47 73 12 169 4 159 -13 -3 -4 5 -7 17 -8 12 0
30 -4 40 -8 13 -5 17 -2 17 14 0 22 -14 28 -25 11 -3 -5 -24 -1 -49 10 -46 19
-139 33 -130 18z"/>
<path d="M1360 646 c0 -2 8 -10 18 -17 15 -13 16 -12 3 4 -13 16 -21 21 -21
13z"/>
<path d="M1850 638 c0 -4 -11 -8 -24 -8 -14 0 -37 -11 -53 -24 -15 -13 -32
-24 -38 -25 -16 -2 -15 -69 2 -75 9 -4 11 -2 6 7 -13 20 -10 28 25 66 l33 36
89 0 c63 0 93 -4 102 -14 8 -8 8 -11 1 -7 -17 9 -26 -11 -13 -31 10 -16 10
-15 5 4 -5 18 -2 21 14 18 11 -2 23 1 27 6 4 7 10 7 18 0 8 -7 12 -4 13 10 2
17 -2 20 -22 15 -13 -3 -36 -1 -52 6 -36 14 -133 26 -133 16z"/>
<path d="M2600 638 c0 -4 -11 -8 -24 -8 -13 0 -35 -9 -49 -20 -14 -11 -30 -20
-35 -20 -12 0 -27 -39 -18 -47 3 -4 1 -11 -4 -18 -7 -8 -5 -12 5 -12 8 0 12 3
10 7 -9 15 56 88 83 93 51 10 158 2 176 -12 28 -23 66 -23 66 0 0 20 -15 26
-25 10 -3 -6 -21 -3 -43 6 -42 19 -142 33 -142 21z"/>
<path d="M880 620 c0 -5 5 -10 11 -10 5 0 7 5 4 10 -3 6 -8 10 -11 10 -2 0 -4
-4 -4 -10z"/>
<path d="M2449 610 c-8 -9 -13 -22 -11 -29 2 -7 10 -1 18 15 17 32 15 37 -7
14z"/>
<path d="M196 604 c-4 -9 -4 -19 -1 -22 2 -3 7 3 11 12 4 9 4 19 1 22 -2 3 -7
-3 -11 -12z"/>
<path d="M537 614 c-8 -8 3 -34 14 -34 5 0 9 9 9 20 0 19 -11 26 -23 14z"/>
<path d="M1696 605 c-3 -9 -6 -22 -5 -28 0 -7 5 -1 10 12 5 13 8 26 5 28 -2 2
-6 -3 -10 -12z"/>
<path d="M943 602 c-7 -4 -9 -13 -4 -21 6 -9 10 -7 14 8 3 12 4 21 4 21 -1 0
-7 -4 -14 -8z"/>
<path d="M151 584 c0 -11 3 -14 6 -6 3 7 2 16 -1 19 -3 4 -6 -2 -5 -13z"/>
<path d="M901 584 c0 -11 3 -14 6 -6 3 7 2 16 -1 19 -3 4 -6 -2 -5 -13z"/>
<path d="M1651 584 c0 -11 3 -14 6 -6 3 7 2 16 -1 19 -3 4 -6 -2 -5 -13z"/>
<path d="M2401 584 c0 -11 3 -14 6 -6 3 7 2 16 -1 19 -3 4 -6 -2 -5 -13z"/>
<path d="M418 583 c7 -3 16 -2 19 1 4 3 -2 6 -13 5 -11 0 -14 -3 -6 -6z"/>
<path d="M470 581 c0 -6 4 -13 10 -16 6 -3 7 1 4 9 -7 18 -14 21 -14 7z"/>
<path d="M1158 583 c7 -3 16 -2 19 1 4 3 -2 6 -13 5 -11 0 -14 -3 -6 -6z"/>
<path d="M1208 580 c22 -9 22 -10 6 -37 l-18 -28 23 23 c18 18 20 26 11 37 -7
8 -20 15 -29 14 -11 0 -8 -3 7 -9z"/>
<path d="M1895 580 c-7 -12 19 -24 37 -17 7 3 2 6 -12 7 l-25 2 25 8 c23 7 23
8 3 9 -12 1 -25 -4 -28 -9z"/>
<path d="M2658 583 c7 -3 16 -2 19 1 4 3 -2 6 -13 5 -11 0 -14 -3 -6 -6z"/>
<path d="M398 568 c6 -6 18 -8 28 -6 14 3 12 5 -9 10 -19 3 -25 2 -19 -4z"/>
<path d="M1158 563 c7 -3 16 -2 19 1 4 3 -2 6 -13 5 -11 0 -14 -3 -6 -6z"/>
<path d="M2658 563 c7 -3 16 -2 19 1 4 3 -2 6 -13 5 -11 0 -14 -3 -6 -6z"/>
<path d="M161 544 c0 -11 3 -14 6 -6 3 7 2 16 -1 19 -3 4 -6 -2 -5 -13z"/>
<path d="M911 544 c0 -11 3 -14 6 -6 3 7 2 16 -1 19 -3 4 -6 -2 -5 -13z"/>
<path d="M2415 535 c2 -16 7 -52 11 -80 4 -27 13 -67 20 -88 7 -20 13 -40 12
-43 -1 -4 11 -21 25 -39 18 -22 40 -36 72 -44 25 -6 43 -16 40 -21 -3 -6 3
-10 15 -10 13 0 24 -9 30 -25 5 -13 23 -31 40 -40 29 -15 30 -15 30 6 0 31
-51 76 -96 85 -36 7 -37 8 -14 15 19 5 12 7 -27 8 -46 1 -55 4 -77 34 -24 31
-55 126 -57 172 0 11 -7 38 -14 60 -11 32 -13 34 -10 10z m270 -365 c3 -5 2
-10 -4 -10 -5 0 -13 5 -16 10 -3 6 -2 10 4 10 5 0 13 -4 16 -10z"/>
<path d="M2715 550 c-3 -6 1 -7 9 -4 18 7 21 14 7 14 -6 0 -13 -4 -16 -10z"/>
<path d="M455 540 c3 -5 8 -10 11 -10 2 0 4 5 4 10 0 6 -5 10 -11 10 -5 0 -7
-4 -4 -10z"/>
<path d="M1666 510 c15 -129 49 -218 96 -251 24 -18 34 -19 66 -11 l37 10 -38
1 c-21 1 -47 5 -57 11 -31 16 -61 81 -75 159 -17 93 -37 151 -29 81z"/>
<path d="M2011 524 c0 -11 3 -14 6 -6 3 7 2 16 -1 19 -3 4 -6 -2 -5 -13z"/>
<path d="M170 494 c0 -48 28 -152 53 -195 18 -33 31 -42 75 -55 29 -9 50 -20
47 -25 -4 -5 3 -9 15 -9 13 0 24 -9 30 -25 5 -13 22 -31 38 -39 23 -12 28 -22
30 -53 2 -21 7 -52 12 -68 8 -23 9 -17 4 30 -12 127 -37 167 -112 181 -30 6
-33 8 -17 15 16 5 14 7 -10 7 -79 -2 -120 49 -140 174 -13 82 -25 112 -25 62z
m265 -324 c3 -5 2 -10 -4 -10 -5 0 -13 5 -16 10 -3 6 -2 10 4 10 5 0 13 -4 16
-10z"/>
<path d="M923 467 c8 -81 44 -173 79 -202 31 -26 38 -28 78 -15 23 8 23 8 -8
9 -79 2 -114 60 -137 225 -8 54 -17 41 -12 -17z"/>
<path d="M427 489 c7 -7 15 -10 18 -7 3 3 -2 9 -12 12 -14 6 -15 5 -6 -5z"/>
<path d="M1092 488 c-7 -7 -12 -8 -12 -4 0 5 -7 3 -15 -4 -8 -7 -15 -19 -15
-28 0 -13 2 -13 18 1 10 10 22 15 25 12 4 -3 5 -2 2 2 -3 3 0 12 6 20 14 16 7
17 -9 1z"/>
<path d="M1177 489 c7 -7 15 -10 18 -7 3 3 -2 9 -12 12 -14 6 -15 5 -6 -5z"/>
<path d="M1927 489 c7 -7 15 -10 18 -7 3 3 -2 9 -12 12 -14 6 -15 5 -6 -5z"/>
<path d="M2596 493 c-4 -5 -12 -8 -17 -8 -5 0 -9 -4 -10 -10 0 -5 -6 -17 -12
-25 -6 -8 3 -2 21 14 18 17 32 31 32 33 0 5 -6 3 -14 -4z"/>
<path d="M330 481 c0 -5 5 -13 12 -17 7 -4 8 -3 4 4 -4 7 -3 12 3 12 5 0 12
-5 14 -10 3 -6 4 -5 3 2 -3 16 -36 24 -36 9z"/>
<path d="M1830 480 c0 -5 7 -7 15 -4 8 4 15 8 15 10 0 2 -7 4 -15 4 -8 0 -15
-4 -15 -10z"/>
<path d="M1890 480 c-9 -6 -10 -10 -3 -10 6 0 15 5 18 10 8 12 4 12 -15 0z"/>
<path d="M2624 482 c-12 -8 -15 -44 -4 -37 6 4 21 45 17 45 -1 0 -7 -4 -13 -8z"/>
<path d="M1190 460 c-8 -5 -12 -11 -10 -14 3 -2 14 2 24 10 22 15 10 19 -14 4z"/>
<path d="M1797 459 c7 -7 15 -10 18 -7 3 3 -2 9 -12 12 -14 6 -15 5 -6 -5z"/>
<path d="M2685 459 c-4 -6 -4 -13 -1 -16 3 -4 6 -1 6 5 0 6 8 13 18 15 15 4
15 5 0 6 -9 0 -20 -4 -23 -10z"/>
<path d="M460 441 c0 -5 7 -12 16 -15 14 -5 15 -4 4 9 -14 17 -20 19 -20 6z"/>
<path d="M1021 436 c-7 -8 -8 -17 -3 -20 6 -3 13 1 16 10 9 23 2 28 -13 10z"/>
<path d="M1960 446 c0 -2 8 -10 18 -17 15 -13 16 -12 3 4 -13 16 -21 21 -21
13z"/>
<path d="M2520 435 c-7 -8 -9 -15 -4 -16 5 0 -1 -4 -13 -9 -13 -5 -23 -16 -23
-25 0 -25 17 -17 40 21 23 36 23 56 0 29z"/>
<path d="M252 413 c-23 -26 -28 -43 -12 -43 10 0 44 59 38 65 -2 2 -13 -8 -26
-22z"/>
<path d="M1753 414 c-23 -26 -29 -44 -15 -44 9 1 53 70 44 70 -4 0 -17 -12
-29 -26z"/>
<path d="M983 395 c-8 -22 6 -33 17 -15 13 20 12 30 0 30 -6 0 -13 -7 -17 -15z"/>
<path d="M220 356 c0 -2 8 -10 18 -17 15 -13 16 -12 3 4 -13 16 -21 21 -21 13z"/>
<path d="M1005 350 c-3 -6 1 -7 9 -4 18 7 21 14 7 14 -6 0 -13 -4 -16 -10z"/>
<path d="M2951 279 c-18 -6 -31 -12 -28 -15 8 -8 77 7 77 17 0 11 -4 10 -49
-2z"/>
<path d="M447 272 c-43 -4 -41 -22 3 -22 16 0 32 -4 35 -10 3 -5 11 -10 18
-10 6 0 2 7 -9 16 -19 15 -18 15 4 11 12 -3 22 -2 22 3 0 11 -28 16 -73 12z"/>
<path d="M680 270 c-12 -8 -12 -10 5 -9 11 0 29 4 40 9 18 8 18 9 -5 9 -14 0
-32 -4 -40 -9z"/>
<path d="M1430 270 c-12 -8 -12 -10 5 -9 11 0 29 4 40 9 18 8 18 9 -5 9 -14 0
-32 -4 -40 -9z"/>
<path d="M2180 270 c-11 -8 -8 -9 14 -6 16 3 31 8 34 11 10 9 -33 5 -48 -5z"/>
<path d="M1145 260 c6 -9 134 -5 143 5 4 3 -28 5 -70 4 -43 -1 -75 -5 -73 -9z"/>
<path d="M1896 261 c9 -10 124 -9 124 1 0 5 -29 8 -65 7 -36 -1 -63 -5 -59 -8z"/>
<path d="M2644 261 c3 -4 23 -8 43 -7 26 2 46 -4 63 -18 l25 -21 -20 24 c-16
19 -16 23 -4 19 9 -4 22 -2 30 3 9 5 -14 9 -64 9 -43 0 -76 -4 -73 -9z"/>
<path d="M1395 250 c3 -5 8 -10 11 -10 2 0 4 5 4 10 0 6 -5 10 -11 10 -5 0 -7
-4 -4 -10z"/>
<path d="M2897 249 c7 -7 15 -10 18 -7 3 3 -2 9 -12 12 -14 6 -15 5 -6 -5z"/>
<path d="M2150 240 c-9 -6 -10 -10 -3 -10 6 0 15 5 18 10 8 12 4 12 -15 0z"/>
<path d="M1088 233 c6 -2 10 -9 6 -14 -3 -5 4 -9 16 -9 13 0 24 -9 30 -25 5
-13 23 -31 40 -40 28 -15 30 -14 30 3 0 41 -67 93 -117 91 -11 0 -13 -3 -5 -6z
m97 -63 c3 -5 2 -10 -4 -10 -5 0 -13 5 -16 10 -3 6 -2 10 4 10 5 0 13 -4 16
-10z"/>
<path d="M1840 230 c8 -5 11 -10 5 -11 -5 0 1 -4 15 -8 14 -4 25 -13 25 -21 0
-8 16 -25 35 -38 30 -20 35 -21 38 -7 8 38 -61 95 -115 95 -15 0 -16 -2 -3
-10z m95 -60 c3 -5 2 -10 -4 -10 -5 0 -13 5 -16 10 -3 6 -2 10 4 10 5 0 13 -4
16 -10z"/>
<path d="M450 216 c0 -2 9 -6 20 -9 11 -3 20 -1 20 4 0 5 -9 9 -20 9 -11 0
-20 -2 -20 -4z"/>
<path d="M1208 213 c7 -3 16 -2 19 1 4 3 -2 6 -13 5 -11 0 -14 -3 -6 -6z"/>
<path d="M1208 115 c-6 -6 11 -107 19 -115 6 -5 -5 111 -10 117 -2 2 -6 1 -9
-2z"/>
<path d="M1959 115 c-3 -5 -1 -35 5 -65 5 -30 11 -46 13 -35 4 27 -11 113 -18
100z"/>
<path d="M2709 115 c-3 -6 -1 -35 5 -65 9 -47 11 -50 14 -24 3 36 -11 104 -19
89z"/>
<path d="M497 93 c-3 -5 -1 -17 4 -28 7 -17 8 -17 8 8 1 27 -4 34 -12 20z"/>
<path d="M2748 94 c-3 -3 -2 -21 3 -41 4 -20 6 -41 3 -45 -3 -4 -1 -8 5 -8 7
0 8 17 4 48 -6 52 -7 54 -15 46z"/>
<path d="M1247 70 c3 -11 7 -20 9 -20 2 0 4 9 4 20 0 11 -4 20 -9 20 -5 0 -7
-9 -4 -20z"/>
<path d="M2002 70 c0 -14 2 -19 5 -12 2 6 2 18 0 25 -3 6 -5 1 -5 -13z"/>
<path d="M2798 53 c5 -21 7 -23 10 -9 2 10 0 22 -6 28 -6 6 -7 0 -4 -19z"/>
<path d="M1301 44 c0 -11 3 -14 6 -6 3 7 2 16 -1 19 -3 4 -6 -2 -5 -13z"/>
<path d="M2051 44 c0 -11 3 -14 6 -6 3 7 2 16 -1 19 -3 4 -6 -2 -5 -13z"/>
<path d="M504 20 c0 -11 4 -20 8 -20 4 0 8 9 8 20 0 11 -4 20 -8 20 -4 0 -8
-9 -8 -20z"/>
<path d="M1253 20 c1 -11 5 -20 9 -20 11 0 10 28 -1 35 -6 3 -9 -4 -8 -15z"/>
<path d="M2003 20 c2 -26 17 -26 17 0 0 11 -4 20 -9 20 -6 0 -9 -9 -8 -20z"/>
<path d="M531 14 c0 -11 3 -14 6 -6 3 7 2 16 -1 19 -3 4 -6 -2 -5 -13z"/>
<path d="M556 17 c3 -10 9 -15 12 -12 3 3 0 11 -7 18 -10 9 -11 8 -5 -6z"/>
<path d="M1281 14 c0 -11 3 -14 6 -6 3 7 2 16 -1 19 -3 4 -6 -2 -5 -13z"/>
<path d="M2031 14 c0 -11 3 -14 6 -6 3 7 2 16 -1 19 -3 4 -6 -2 -5 -13z"/>
<path d="M2781 14 c0 -11 3 -14 6 -6 3 7 2 16 -1 19 -3 4 -6 -2 -5 -13z"/>
</g>
</svg>
